<svg xmlns="http://www.w3.org/2000/svg" viewBox="0 0 410 170" fill="none" stroke="currentColor" color="#0D47A1" stroke-width="2.5" stroke-linecap="round" stroke-linejoin="round"><path fill="#B9DDF7" stroke="none" d="M78.0,3.5L78.5,4.0L79.0,4.5L80.0,4.5L81.0,4.5L82.0,4.5L83.0,4.5L84.0,4.5L85.0,4.5L86.0,4.5L87.0,4.5L88.0,4.5L89.0,4.5L89.5,5.0L90.0,5.5L90.5,5.0L91.0,4.5L92.0,4.5L92.5,5.0L92.0,5.5L91.5,6.0L91.0,6.5L90.5,7.0L90.5,8.0L90.0,8.5L89.0,8.5L88.0,8.5L87.0,8.5L86.0,8.5L85.0,8.5L84.5,9.0L84.5,10.0L85.0,10.5L86.0,10.5L86.5,10.0L87.0,9.5L88.0,9.5L89.0,9.5L89.5,10.0L90.0,10.5L91.0,10.5L91.5,10.0L92.0,9.5L92.5,10.0L93.0,10.5L93.5,11.0L94.0,11.5L95.0,11.5L95.5,12.0L96.0,12.5L97.0,12.5L98.0,12.5L98.5,13.0L99.0,13.5L100.0,13.5L101.0,13.5L101.5,14.0L102.0,14.5L102.5,15.0L102.5,16.0L102.5,17.0L103.0,17.5L104.0,17.5L104.5,18.0L105.0,18.5L106.0,18.5L106.5,19.0L107.0,19.5L107.5,20.0L107.0,20.5L106.5,21.0L106.0,21.5L105.0,21.5L104.5,21.0L104.0,20.5L103.0,20.5L102.0,20.5L101.5,21.0L102.0,21.5L102.5,22.0L103.0,22.5L104.0,22.5L105.0,22.5L105.5,23.0L105.0,23.5L104.5,24.0L104.0,24.5L103.5,25.0L103.0,25.5L102.0,25.5L101.0,25.5L100.0,25.5L99.5,25.0L99.0,24.5L98.0,24.5L97.5,24.0L97.0,23.5L96.0,23.5L95.0,23.5L94.5,23.0L94.0,22.5L93.0,22.5L92.5,22.0L92.5,21.0L93.0,20.5L94.0,20.5L95.0,20.5L95.5,20.0L96.0,19.5L96.5,19.0L96.5,18.0L96.0,17.5L95.5,17.0L95.0,16.5L94.0,16.5L93.5,16.0L93.0,15.5L92.0,15.5L91.0,15.5L90.5,15.0L90.0,14.5L89.5,15.0L89.0,15.5L88.5,16.0L89.0,16.5L89.5,17.0L89.5,18.0L89.5,19.0L89.0,19.5L88.0,19.5L87.5,20.0L87.5,21.0L88.0,21.5L88.5,22.0L89.0,22.5L89.5,23.0L89.0,23.5L88.0,23.5L87.5,24.0L87.0,24.5L86.0,24.5L85.5,24.0L85.0,23.5L84.0,23.5L83.0,23.5L82.0,23.5L81.0,23.5L80.5,24.0L80.0,24.5L79.5,25.0L79.0,25.5L78.5,26.0L78.0,26.5L77.5,27.0L77.5,28.0L77.5,29.0L78.0,29.5L78.5,30.0L79.0,30.5L79.5,31.0L80.0,31.5L81.0,31.5L82.0,31.5L83.0,31.5L83.5,32.0L84.0,32.5L85.0,32.5L85.5,33.0L86.0,33.5L87.0,33.5L88.0,33.5L88.5,34.0L89.0,34.5L89.5,35.0L89.5,36.0L89.5,37.0L90.0,37.5L90.5,38.0L91.0,38.5L91.5,38.0L91.5,37.0L91.5,36.0L91.5,35.0L91.5,34.0L92.0,33.5L92.5,33.0L93.0,32.5L93.5,32.0L93.5,31.0L93.0,30.5L92.5,30.0L92.5,29.0L92.5,28.0L92.5,27.0L92.5,26.0L93.0,25.5L94.0,25.5L95.0,25.5L96.0,25.5L97.0,25.5L98.0,25.5L98.5,26.0L99.0,26.5L99.5,27.0L100.0,27.5L100.5,28.0L100.5,29.0L101.0,29.5L102.0,29.5L103.0,29.5L103.5,29.0L104.0,28.5L104.5,28.0L105.0,27.5L105.5,28.0L105.5,29.0L106.0,29.5L106.5,30.0L106.5,31.0L107.0,31.5L107.5,32.0L108.0,32.5L108.5,33.0L109.0,33.5L110.0,33.5L110.5,34.0L111.0,34.5L112.0,34.5L112.5,35.0L112.5,36.0L112.5,37.0L112.5,38.0L112.5,39.0L113.0,39.5L114.0,39.5L114.5,40.0L115.0,40.5L115.5,41.0L115.5,42.0L115.5,43.0L115.0,43.5L114.5,43.0L114.0,42.5L113.0,42.5L112.0,42.5L111.0,42.5L110.5,42.0L110.0,41.5L109.5,41.0L110.0,40.5L110.5,40.0L111.0,39.5L111.5,39.0L111.0,38.5L110.0,38.5L109.5,39.0L109.0,39.5L108.0,39.5L107.0,39.5L106.0,39.5L105.0,39.5L104.0,39.5L103.0,39.5L102.5,40.0L103.0,40.5L104.0,40.5L105.0,40.5L105.5,41.0L105.5,42.0L105.0,42.5L104.5,43.0L105.0,43.5L106.0,43.5L106.5,43.0L107.0,42.5L108.0,42.5L108.5,43.0L108.5,44.0L108.0,44.5L107.0,44.5L106.5,45.0L106.0,45.5L105.0,45.5L104.5,46.0L104.0,46.5L103.5,46.0L103.0,45.5L102.5,45.0L102.0,44.5L101.5,45.0L101.0,45.5L100.5,46.0L100.5,47.0L100.0,47.5L99.5,48.0L99.0,48.5L98.0,48.5L97.5,49.0L97.0,49.5L96.5,50.0L96.0,50.5L95.5,51.0L95.0,51.5L94.5,52.0L94.5,53.0L94.5,54.0L94.0,54.5L93.5,55.0L93.0,55.5L92.0,55.5L91.5,56.0L91.0,56.5L90.5,57.0L90.0,57.5L89.5,58.0L89.5,59.0L89.5,60.0L89.5,61.0L90.0,61.5L90.5,62.0L90.5,63.0L90.5,64.0L90.0,64.5L89.5,64.0L89.0,63.5L88.5,63.0L88.5,62.0L88.0,61.5L87.5,61.0L87.5,60.0L87.0,59.5L86.0,59.5L85.0,59.5L84.0,59.5L83.0,59.5L82.5,60.0L82.0,60.5L81.0,60.5L80.0,60.5L79.0,60.5L78.0,60.5L77.0,60.5L76.5,61.0L76.0,61.5L75.5,62.0L75.5,63.0L75.5,64.0L75.5,65.0L75.5,66.0L75.5,67.0L75.5,68.0L75.0,68.5L74.5,68.0L74.5,67.0L74.5,66.0L74.5,65.0L74.5,64.0L74.0,63.5L73.5,63.0L73.0,62.5L72.5,62.0L72.0,61.5L71.5,61.0L71.0,60.5L70.5,60.0L70.0,59.5L69.5,59.0L69.0,58.5L68.5,58.0L68.0,57.5L67.0,57.5L66.5,57.0L66.0,56.5L65.0,56.5L64.0,56.5L63.5,56.0L63.0,55.5L62.5,55.0L62.5,54.0L62.5,53.0L62.5,52.0L62.0,51.5L61.5,51.0L61.5,50.0L61.5,49.0L61.0,48.5L60.5,48.0L60.5,47.0L60.5,46.0L60.5,45.0L60.0,44.5L59.5,44.0L59.0,43.5L58.5,43.0L59.0,42.5L60.0,42.5L60.5,42.0L60.0,41.5L59.0,41.5L58.0,41.5L57.0,41.5L56.0,41.5L55.0,41.5L54.0,41.5L53.0,41.5L52.5,42.0L52.5,43.0L52.5,44.0L52.0,44.5L51.5,45.0L51.0,45.5L50.5,45.0L50.5,44.0L50.0,43.5L49.5,43.0L49.5,42.0L49.0,41.5L48.0,41.5L47.5,41.0L47.0,40.5L46.5,40.0L46.5,39.0L46.0,38.5L45.5,38.0L45.0,37.5L44.5,37.0L44.5,36.0L44.0,35.5L43.5,35.0L43.0,34.5L42.0,34.5L41.5,34.0L41.5,33.0L41.0,32.5L40.5,33.0L40.0,33.5L39.5,33.0L39.0,32.5L38.5,32.0L38.0,31.5L37.5,31.0L37.0,30.5L36.0,30.5L35.5,30.0L35.0,29.5L34.0,29.5L33.0,29.5L32.0,29.5L31.5,29.0L31.0,28.5L30.0,28.5L29.0,28.5L28.0,28.5L27.0,28.5L26.0,28.5L25.0,28.5L24.5,29.0L24.0,29.5L23.0,29.5L22.0,29.5L21.5,29.0L21.0,28.5L20.5,29.0L20.0,29.5L19.5,30.0L20.0,30.5L21.0,30.5L21.5,31.0L21.0,31.5L20.5,32.0L20.0,32.5L19.0,32.5L18.5,32.0L18.0,31.5L17.5,32.0L17.0,32.5L16.5,33.0L16.0,33.5L15.0,33.5L14.5,34.0L14.0,34.5L13.0,34.5L12.5,35.0L12.0,35.5L11.0,35.5L10.0,35.5L9.5,36.0L9.0,36.5L8.5,36.0L8.5,35.0L9.0,34.5L10.0,34.5L10.5,34.0L11.0,33.5L12.0,33.5L12.5,33.0L13.0,32.5L14.0,32.5L14.5,32.0L15.0,31.5L15.5,31.0L15.0,30.5L14.0,30.5L13.0,30.5L12.0,30.5L11.5,30.0L11.0,29.5L10.0,29.5L9.5,29.0L9.0,28.5L8.0,28.5L7.5,28.0L7.0,27.5L6.5,27.0L7.0,26.5L7.5,26.0L8.0,25.5L8.5,25.0L9.0,24.5L10.0,24.5L11.0,24.5L11.5,24.0L12.0,23.5L12.5,23.0L12.0,22.5L11.0,22.5L10.5,23.0L10.0,23.5L9.0,23.5L8.5,23.0L8.0,22.5L7.0,22.5L6.0,22.5L5.5,22.0L5.5,21.0L6.0,20.5L6.5,20.0L7.0,19.5L8.0,19.5L9.0,19.5L9.5,20.0L10.0,20.5L11.0,20.5L11.5,20.0L11.0,19.5L10.0,19.5L9.5,19.0L9.0,18.5L8.0,18.5L7.5,18.0L7.0,17.5L6.5,17.0L7.0,16.5L8.0,16.5L8.5,16.0L9.0,15.5L10.0,15.5L10.5,15.0L11.0,14.5L12.0,14.5L12.5,14.0L13.0,13.5L14.0,13.5L15.0,13.5L15.5,13.0L16.0,12.5L17.0,12.5L18.0,12.5L18.5,13.0L19.0,13.5L20.0,13.5L21.0,13.5L22.0,13.5L23.0,13.5L24.0,13.5L24.5,14.0L25.0,14.5L26.0,14.5L27.0,14.5L28.0,14.5L29.0,14.5L30.0,14.5L31.0,14.5L32.0,14.5L32.5,15.0L33.0,15.5L34.0,15.5L35.0,15.5L35.5,16.0L36.0,16.5L37.0,16.5L37.5,16.0L38.0,15.5L39.0,15.5L40.0,15.5L40.5,15.0L41.0,14.5L42.0,14.5L42.5,15.0L43.0,15.5L43.5,15.0L44.0,14.5L45.0,14.5L46.0,14.5L46.5,15.0L47.0,15.5L47.5,15.0L48.0,14.5L49.0,14.5L50.0,14.5L51.0,14.5L52.0,14.5L52.5,15.0L53.0,15.5L54.0,15.5L55.0,15.5L55.5,16.0L56.0,16.5L57.0,16.5L58.0,16.5L58.5,17.0L59.0,17.5L59.5,18.0L60.0,18.5L60.5,18.0L61.0,17.5L61.5,17.0L61.0,16.5L60.0,16.5L59.0,16.5L58.5,16.0L58.5,15.0L58.0,14.5L57.0,14.5L56.0,14.5L55.0,14.5L54.5,14.0L54.5,13.0L55.0,12.5L55.5,12.0L55.0,11.5L54.0,11.5L53.5,12.0L53.0,12.5L52.5,13.0L52.0,13.5L51.0,13.5L50.0,13.5L49.0,13.5L48.5,13.0L48.5,12.0L48.5,11.0L48.5,10.0L48.5,9.0L49.0,8.5L50.0,8.5L51.0,8.5L52.0,8.5L53.0,8.5L54.0,8.5L54.5,9.0L55.0,9.5L56.0,9.5L56.5,10.0L57.0,10.5L58.0,10.5L59.0,10.5L60.0,10.5L61.0,10.5L62.0,10.5L62.5,11.0L63.0,11.5L63.5,11.0L64.0,10.5L64.5,10.0L65.0,9.5L65.5,9.0L66.0,8.5L66.5,9.0L67.0,9.5L67.5,10.0L67.5,11.0L67.5,12.0L68.0,12.5L68.5,13.0L69.0,13.5L69.5,14.0L70.0,14.5L70.5,15.0L70.5,16.0L70.0,16.5L69.0,16.5L68.0,16.5L67.0,16.5L66.5,17.0L67.0,17.5L68.0,17.5L69.0,17.5L70.0,17.5L71.0,17.5L72.0,17.5L73.0,17.5L73.5,17.0L73.5,16.0L73.5,15.0L74.0,14.5L75.0,14.5L75.5,14.0L75.5,13.0L75.0,12.5L74.5,13.0L74.0,13.5L73.0,13.5L72.0,13.5L71.5,13.0L71.0,12.5L70.5,12.0L70.0,11.5L69.5,11.0L69.5,10.0L70.0,9.5L71.0,9.5L72.0,9.5L73.0,9.5L73.5,9.0L74.0,8.5L74.5,9.0L75.0,9.5L75.5,10.0L75.5,11.0L76.0,11.5L76.5,11.0L77.0,10.5L77.5,10.0L78.0,9.5L78.5,9.0L78.0,8.5L77.0,8.5L76.0,8.5L75.5,8.0L75.5,7.0L75.5,6.0L75.5,5.0L76.0,4.5L77.0,4.5L77.5,4.0L78.0,3.5Z"/><path fill="#B9DDF7" stroke="none" d="M291.0,3.5L291.5,4.0L292.0,4.5L293.0,4.5L294.0,4.5L295.0,4.5L296.0,4.5L297.0,4.5L297.5,5.0L298.0,5.5L299.0,5.5L300.0,5.5L301.0,5.5L301.5,6.0L301.5,7.0L301.5,8.0L301.0,8.5L300.5,9.0L301.0,9.5L302.0,9.5L303.0,9.5L304.0,9.5L305.0,9.5L305.5,10.0L306.0,10.5L307.0,10.5L308.0,10.5L309.0,10.5L309.5,10.0L310.0,9.5L311.0,9.5L312.0,9.5L313.0,9.5L313.5,10.0L314.0,10.5L314.5,11.0L314.5,12.0L314.5,13.0L315.0,13.5L316.0,13.5L316.5,13.0L317.0,12.5L318.0,12.5L319.0,12.5L320.0,12.5L321.0,12.5L322.0,12.5L323.0,12.5L323.5,12.0L324.0,11.5L325.0,11.5L325.5,11.0L325.0,10.5L324.5,10.0L324.5,9.0L324.0,8.5L323.0,8.5L322.5,8.0L322.0,7.5L321.5,7.0L321.5,6.0L322.0,5.5L323.0,5.5L324.0,5.5L325.0,5.5L326.0,5.5L327.0,5.5L328.0,5.5L329.0,5.5L329.5,6.0L330.0,6.5L331.0,6.5L332.0,6.5L333.0,6.5L333.5,7.0L334.0,7.5L334.5,8.0L334.0,8.5L333.0,8.5L332.0,8.5L331.5,8.0L331.0,7.5L330.0,7.5L329.0,7.5L328.0,7.5L327.0,7.5L326.0,7.5L325.5,8.0L326.0,8.5L326.5,9.0L327.0,9.5L327.5,10.0L328.0,10.5L328.5,11.0L329.0,11.5L330.0,11.5L331.0,11.5L332.0,11.5L332.5,12.0L333.0,12.5L334.0,12.5L334.5,13.0L335.0,13.5L336.0,13.5L337.0,13.5L338.0,13.5L339.0,13.5L340.0,13.5L341.0,13.5L341.5,14.0L342.0,14.5L342.5,15.0L343.0,15.5L344.0,15.5L345.0,15.5L346.0,15.5L347.0,15.5L348.0,15.5L349.0,15.5L350.0,15.5L351.0,15.5L351.5,15.0L352.0,14.5L352.5,15.0L353.0,15.5L354.0,15.5L355.0,15.5L356.0,15.5L357.0,15.5L358.0,15.5L359.0,15.5L359.5,16.0L360.0,16.5L361.0,16.5L361.5,17.0L362.0,17.5L362.5,18.0L363.0,18.5L364.0,18.5L364.5,19.0L365.0,19.5L366.0,19.5L366.5,19.0L367.0,18.5L367.5,19.0L368.0,19.5L369.0,19.5L369.5,20.0L369.5,21.0L369.0,21.5L368.0,21.5L367.0,21.5L366.5,22.0L366.5,23.0L366.0,23.5L365.0,23.5L364.5,23.0L364.0,22.5L363.5,22.0L363.0,21.5L362.0,21.5L361.0,21.5L360.5,22.0L360.0,22.5L359.5,23.0L359.0,23.5L358.5,24.0L359.0,24.5L359.5,25.0L360.0,25.5L360.5,26.0L360.0,26.5L359.0,26.5L358.0,26.5L357.0,26.5L356.5,27.0L356.0,27.5L355.0,27.5L354.5,28.0L354.0,28.5L353.0,28.5L352.5,29.0L352.0,29.5L351.0,29.5L350.0,29.5L349.0,29.5L348.0,29.5L347.0,29.5L346.5,30.0L346.0,30.5L345.5,31.0L345.5,32.0L345.5,33.0L346.0,33.5L346.5,34.0L346.5,35.0L346.0,35.5L345.5,36.0L345.0,36.5L344.5,37.0L344.5,38.0L344.0,38.5L343.5,39.0L343.0,39.5L342.5,40.0L342.0,40.5L341.5,41.0L341.0,41.5L340.5,42.0L340.0,42.5L339.5,42.0L339.5,41.0L339.5,40.0L339.5,39.0L339.0,38.5L338.5,38.0L338.5,37.0L338.5,36.0L338.5,35.0L339.0,34.5L339.5,34.0L339.5,33.0L340.0,32.5L341.0,32.5L341.5,32.0L342.0,31.5L342.5,31.0L343.0,30.5L343.5,30.0L344.0,29.5L344.5,29.0L345.0,28.5L345.5,28.0L345.0,27.5L344.5,28.0L344.0,28.5L343.0,28.5L342.0,28.5L341.0,28.5L340.0,28.5L339.5,29.0L339.0,29.5L338.5,30.0L338.0,30.5L337.5,31.0L337.0,31.5L336.0,31.5L335.5,31.0L335.0,30.5L334.0,30.5L333.0,30.5L332.5,31.0L332.0,31.5L331.0,31.5L330.0,31.5L329.0,31.5L328.5,31.0L328.0,30.5L327.5,31.0L327.0,31.5L326.0,31.5L325.5,32.0L325.0,32.5L324.5,33.0L324.0,33.5L323.5,34.0L323.0,34.5L322.5,35.0L322.0,35.5L321.0,35.5L320.5,36.0L321.0,36.5L322.0,36.5L322.5,37.0L323.0,37.5L324.0,37.5L325.0,37.5L325.5,38.0L326.0,38.5L326.5,38.0L327.0,37.5L327.5,38.0L328.0,38.5L328.5,39.0L328.5,40.0L328.5,41.0L328.5,42.0L328.5,43.0L328.5,44.0L328.0,44.5L327.5,44.0L327.0,43.5L326.5,43.0L326.5,42.0L326.5,41.0L326.5,40.0L326.0,39.5L325.5,40.0L325.5,41.0L325.5,42.0L325.0,42.5L324.5,43.0L324.5,44.0L324.5,45.0L324.0,45.5L323.5,46.0L323.0,46.5L322.5,47.0L322.0,47.5L321.5,48.0L321.0,48.5L320.5,49.0L320.0,49.5L319.5,50.0L319.0,50.5L318.0,50.5L317.0,50.5L316.5,51.0L316.0,51.5L315.5,52.0L315.0,52.5L314.5,53.0L314.0,53.5L313.5,54.0L313.5,55.0L314.0,55.5L314.5,56.0L314.5,57.0L314.5,58.0L314.5,59.0L314.0,59.5L313.0,59.5L312.5,59.0L312.5,58.0L312.5,57.0L312.0,56.5L311.5,56.0L311.0,55.5L310.5,55.0L310.5,54.0L310.0,53.5L309.0,53.5L308.0,53.5L307.5,53.0L307.0,52.5L306.5,53.0L306.0,53.5L305.5,54.0L305.0,54.5L304.5,55.0L305.0,55.5L306.0,55.5L307.0,55.5L307.5,56.0L307.5,57.0L307.0,57.5L306.5,58.0L306.5,59.0L307.0,59.5L307.5,60.0L307.5,61.0L307.5,62.0L307.5,63.0L307.5,64.0L307.0,64.5L306.5,65.0L306.5,66.0L306.0,66.5L305.5,67.0L305.0,67.5L304.5,68.0L304.0,68.5L303.0,68.5L302.5,69.0L302.0,69.5L301.0,69.5L300.5,70.0L300.0,70.5L299.0,70.5L298.0,70.5L297.0,70.5L296.0,70.5L295.0,70.5L294.5,71.0L294.0,71.5L293.5,72.0L293.5,73.0L294.0,73.5L294.5,74.0L295.0,74.5L295.5,75.0L296.0,75.5L296.5,76.0L296.5,77.0L296.5,78.0L297.0,78.5L297.5,79.0L297.0,79.5L296.5,80.0L296.0,80.5L295.5,81.0L295.0,81.5L294.5,82.0L294.0,82.5L293.0,82.5L292.0,82.5L291.5,82.0L291.5,81.0L291.0,80.5L290.5,80.0L290.0,79.5L289.0,79.5L288.0,79.5L287.5,80.0L287.5,81.0L287.5,82.0L287.5,83.0L287.5,84.0L288.0,84.5L288.5,85.0L289.0,85.5L289.5,86.0L290.0,86.5L290.5,87.0L290.5,88.0L291.0,88.5L291.5,89.0L291.5,90.0L291.0,90.5L290.0,90.5L289.5,90.0L289.0,89.5L288.5,89.0L288.5,88.0L288.5,87.0L288.0,86.5L287.5,86.0L287.0,85.5L286.5,85.0L286.0,84.5L285.5,84.0L285.5,83.0L286.0,82.5L286.5,82.0L286.5,81.0L286.0,80.5L285.5,80.0L285.5,79.0L285.5,78.0L285.5,77.0L285.5,76.0L285.0,75.5L284.0,75.5L283.5,76.0L283.0,76.5L282.5,76.0L282.5,75.0L282.5,74.0L282.0,73.5L281.5,73.0L281.0,72.5L280.5,72.0L280.5,71.0L280.0,70.5L279.5,70.0L279.0,69.5L278.0,69.5L277.0,69.5L276.5,70.0L276.0,70.5L275.0,70.5L274.5,71.0L274.0,71.5L273.5,72.0L273.0,72.5L272.5,73.0L272.0,73.5L271.5,74.0L271.0,74.5L270.0,74.5L269.5,75.0L269.0,75.5L268.5,76.0L268.0,76.5L267.5,77.0L267.5,78.0L267.5,79.0L267.5,80.0L267.5,81.0L267.0,81.5L266.5,82.0L266.0,82.5L265.5,83.0L265.5,84.0L265.0,84.5L264.5,84.0L264.0,83.5L263.5,83.0L263.5,82.0L263.0,81.5L262.5,81.0L262.5,80.0L262.0,79.5L261.5,79.0L261.5,78.0L261.0,77.5L260.5,77.0L260.5,76.0L260.0,75.5L259.5,75.0L259.5,74.0L259.5,73.0L259.5,72.0L259.5,71.0L259.0,70.5L258.5,71.0L258.0,71.5L257.0,71.5L256.5,71.0L256.5,70.0L256.0,69.5L255.5,69.0L255.0,68.5L254.5,68.0L254.0,67.5L253.5,67.0L253.0,66.5L252.0,66.5L251.0,66.5L250.0,66.5L249.0,66.5L248.0,66.5L247.0,66.5L246.0,66.5L245.0,66.5L244.0,66.5L243.5,66.0L243.0,65.5L242.0,65.5L241.0,65.5L240.0,65.5L239.0,65.5L238.5,65.0L238.0,64.5L237.5,64.0L237.0,63.5L236.5,63.0L236.0,62.5L235.0,62.5L234.5,63.0L235.0,63.5L235.5,64.0L236.0,64.5L236.5,65.0L236.5,66.0L237.0,66.5L237.5,67.0L238.0,67.5L239.0,67.5L240.0,67.5L240.5,67.0L241.0,66.5L242.0,66.5L242.5,67.0L243.0,67.5L243.5,68.0L244.0,68.5L245.0,68.5L245.5,69.0L246.0,69.5L246.5,70.0L246.5,71.0L246.0,71.5L245.5,72.0L245.0,72.5L244.5,73.0L244.0,73.5L243.5,74.0L243.0,74.5L242.0,74.5L241.5,75.0L241.0,75.5L240.0,75.5L239.5,76.0L239.0,76.5L238.5,77.0L238.0,77.5L237.0,77.5L236.5,78.0L236.0,78.5L235.0,78.5L234.0,78.5L233.5,79.0L233.0,79.5L232.0,79.5L231.5,80.0L231.0,80.5L230.0,80.5L229.5,80.0L229.5,79.0L229.0,78.5L228.5,78.0L228.5,77.0L228.5,76.0L228.0,75.5L227.5,75.0L227.0,74.5L226.5,74.0L226.0,73.5L225.5,73.0L225.5,72.0L225.5,71.0L225.0,70.5L224.5,70.0L224.0,69.5L223.5,69.0L223.0,68.5L222.5,68.0L222.5,67.0L222.0,66.5L221.5,66.0L221.0,65.5L220.5,65.0L220.0,64.5L219.5,65.0L219.5,66.0L220.0,66.5L220.5,67.0L220.5,68.0L221.0,68.5L221.5,69.0L221.5,70.0L222.0,70.5L222.5,71.0L223.0,71.5L223.5,72.0L223.5,73.0L223.5,74.0L223.5,75.0L224.0,75.5L224.5,76.0L225.0,76.5L225.5,77.0L226.0,77.5L226.5,78.0L227.0,78.5L227.5,79.0L228.0,79.5L228.5,80.0L229.0,80.5L229.5,81.0L229.5,82.0L230.0,82.5L231.0,82.5L232.0,82.5L233.0,82.5L233.5,82.0L234.0,81.5L235.0,81.5L236.0,81.5L237.0,81.5L238.0,81.5L238.5,82.0L238.5,83.0L238.0,83.5L237.5,84.0L237.5,85.0L237.0,85.5L236.5,86.0L236.5,87.0L236.0,87.5L235.5,88.0L235.5,89.0L235.0,89.5L234.5,90.0L234.0,90.5L233.5,91.0L233.0,91.5L232.5,92.0L232.0,92.5L231.0,92.5L230.5,93.0L230.0,93.5L229.5,94.0L229.0,94.5L228.5,95.0L228.0,95.5L227.5,96.0L227.0,96.5L226.5,97.0L226.5,98.0L226.0,98.5L225.5,99.0L225.0,99.5L224.5,99.0L224.0,98.5L223.5,99.0L223.5,100.0L223.0,100.5L222.5,101.0L222.5,102.0L222.0,102.5L221.5,103.0L222.0,103.5L223.0,103.5L223.5,104.0L223.5,105.0L223.5,106.0L224.0,106.5L224.5,107.0L224.5,108.0L224.5,109.0L224.5,110.0L225.0,110.5L225.5,111.0L225.5,112.0L225.5,113.0L225.0,113.5L224.5,114.0L224.5,115.0L224.0,115.5L223.0,115.5L222.5,116.0L222.0,116.5L221.5,117.0L221.0,117.5L220.5,118.0L220.0,118.5L219.5,119.0L219.5,120.0L219.5,121.0L219.5,122.0L219.5,123.0L219.0,123.5L218.0,123.5L217.5,124.0L217.5,125.0L217.5,126.0L217.0,126.5L216.5,127.0L216.5,128.0L216.0,128.5L215.5,129.0L215.0,129.5L214.0,129.5L213.0,129.5L212.0,129.5L211.0,129.5L210.0,129.5L209.0,129.5L208.0,129.5L207.0,129.5L206.0,129.5L205.0,129.5L204.0,129.5L203.0,129.5L202.0,129.5L201.5,129.0L201.0,128.5L200.5,128.0L200.0,127.5L199.5,127.0L199.5,126.0L199.5,125.0L199.0,124.5L198.5,124.0L198.5,123.0L198.5,122.0L198.5,121.0L198.0,120.5L197.5,120.0L197.5,119.0L197.0,118.5L196.5,118.0L196.0,117.5L195.5,117.0L195.5,116.0L195.5,115.0L196.0,114.5L196.5,114.0L196.5,113.0L196.5,112.0L197.0,111.5L197.5,111.0L197.5,110.0L197.5,109.0L197.5,108.0L197.5,107.0L197.0,106.5L196.5,106.0L196.5,105.0L196.5,104.0L196.0,103.5L195.5,103.0L195.0,102.5L194.5,102.0L194.0,101.5L193.5,101.0L193.0,100.5L192.5,100.0L192.0,99.5L191.5,99.0L191.5,98.0L192.0,97.5L192.5,97.0L192.5,96.0L192.5,95.0L192.5,94.0L192.5,93.0L192.0,92.5L191.0,92.5L190.0,92.5L189.0,92.5L188.5,92.0L188.5,91.0L188.0,90.5L187.0,90.5L186.0,90.5L185.0,90.5L184.0,90.5L183.5,91.0L183.0,91.5L182.0,91.5L181.5,92.0L181.0,92.5L180.0,92.5L179.5,92.0L179.0,91.5L178.0,91.5L177.0,91.5L176.5,92.0L176.0,92.5L175.0,92.5L174.0,92.5L173.0,92.5L172.5,92.0L172.0,91.5L171.5,91.0L171.0,90.5L170.5,90.0L170.0,89.5L169.5,89.0L169.0,88.5L168.5,88.0L168.0,87.5L167.5,87.0L167.5,86.0L167.0,85.5L166.5,85.0L166.0,84.5L165.5,84.0L165.0,83.5L164.5,83.0L164.5,82.0L164.5,81.0L164.5,80.0L164.5,79.0L165.0,78.5L165.5,78.0L165.5,77.0L165.5,76.0L165.5,75.0L165.0,74.5L164.5,74.0L164.5,73.0L164.5,72.0L165.0,71.5L165.5,71.0L166.0,70.5L166.5,70.0L166.5,69.0L167.0,68.5L167.5,68.0L168.0,67.5L168.5,67.0L169.0,66.5L169.5,66.0L170.0,65.5L170.5,65.0L171.0,64.5L171.5,64.0L172.0,63.5L172.5,63.0L172.5,62.0L173.0,61.5L173.5,61.0L173.5,60.0L174.0,59.5L174.5,59.0L175.0,58.5L176.0,58.5L176.5,58.0L176.5,57.0L176.0,56.5L175.0,56.5L174.5,56.0L174.0,55.5L173.5,55.0L173.0,54.5L172.5,54.0L172.5,53.0L173.0,52.5L173.5,52.0L173.5,51.0L173.5,50.0L173.5,49.0L174.0,48.5L174.5,48.0L175.0,47.5L176.0,47.5L177.0,47.5L178.0,47.5L178.5,48.0L179.0,48.5L180.0,48.5L181.0,48.5L181.5,48.0L182.0,47.5L182.5,47.0L182.0,46.5L181.5,46.0L181.5,45.0L181.0,44.5L180.5,44.0L180.0,43.5L179.5,43.0L179.0,42.5L178.5,42.0L179.0,41.5L179.5,41.0L179.0,40.5L178.5,40.0L178.5,39.0L179.0,38.5L179.5,38.0L180.0,37.5L180.5,37.0L180.0,36.5L179.5,36.0L179.5,35.0L179.0,34.5L178.5,34.0L178.0,33.5L177.5,33.0L177.5,32.0L178.0,31.5L178.5,31.0L178.5,30.0L179.0,29.5L180.0,29.5L180.5,30.0L181.0,30.5L182.0,30.5L182.5,31.0L182.5,32.0L182.0,32.5L181.5,33.0L182.0,33.5L182.5,34.0L183.0,34.5L183.5,35.0L184.0,35.5L184.5,36.0L185.0,36.5L185.5,37.0L186.0,37.5L186.5,38.0L186.5,39.0L186.0,39.5L185.5,40.0L186.0,40.5L186.5,40.0L187.0,39.5L188.0,39.5L188.5,39.0L189.0,38.5L189.5,38.0L190.0,37.5L190.5,37.0L191.0,36.5L192.0,36.5L193.0,36.5L193.5,36.0L193.5,35.0L193.0,34.5L192.5,34.0L193.0,33.5L193.5,33.0L194.0,32.5L195.0,32.5L195.5,33.0L195.5,34.0L195.5,35.0L195.5,36.0L196.0,36.5L196.5,36.0L197.0,35.5L198.0,35.5L199.0,35.5L199.5,36.0L200.0,36.5L201.0,36.5L201.5,36.0L202.0,35.5L203.0,35.5L204.0,35.5L205.0,35.5L205.5,35.0L205.5,34.0L206.0,33.5L206.5,33.0L206.5,32.0L207.0,31.5L207.5,32.0L208.0,32.5L209.0,32.5L209.5,32.0L209.0,31.5L208.5,31.0L208.5,30.0L209.0,29.5L209.5,29.0L209.0,28.5L208.0,28.5L207.0,28.5L206.5,28.0L206.5,27.0L206.5,26.0L206.5,25.0L207.0,24.5L207.5,24.0L208.0,23.5L208.5,23.0L209.0,22.5L210.0,22.5L210.5,22.0L210.0,21.5L209.0,21.5L208.0,21.5L207.0,21.5L206.5,22.0L206.0,22.5L205.5,23.0L205.5,24.0L205.0,24.5L204.0,24.5L203.5,25.0L203.0,25.5L202.5,26.0L202.5,27.0L202.5,28.0L203.0,28.5L203.5,29.0L203.5,30.0L203.5,31.0L203.0,31.5L202.5,32.0L202.0,32.5L201.5,33.0L201.0,33.5L200.5,34.0L200.0,34.5L199.0,34.5L198.0,34.5L197.5,34.0L197.5,33.0L197.0,32.5L196.5,32.0L196.5,31.0L196.5,30.0L196.0,29.5L195.5,30.0L195.0,30.5L194.0,30.5L193.5,31.0L193.0,31.5L192.0,31.5L191.0,31.5L190.5,31.0L190.5,30.0L190.5,29.0L190.0,28.5L189.5,28.0L189.5,27.0L190.0,26.5L190.5,26.0L191.0,25.5L192.0,25.5L192.5,25.0L193.0,24.5L194.0,24.5L194.5,24.0L195.0,23.5L195.5,23.0L196.0,22.5L196.5,22.0L197.0,21.5L197.5,21.0L198.0,20.5L198.5,20.0L199.0,19.5L199.5,19.0L200.0,18.5L200.5,18.0L200.0,17.5L199.5,17.0L200.0,16.5L201.0,16.5L201.5,16.0L202.0,15.5L203.0,15.5L204.0,15.5L205.0,15.5L206.0,15.5L206.5,15.0L207.0,14.5L208.0,14.5L209.0,14.5L209.5,14.0L210.0,13.5L211.0,13.5L212.0,13.5L213.0,13.5L214.0,13.5L214.5,14.0L215.0,14.5L215.5,15.0L216.0,15.5L217.0,15.5L218.0,15.5L218.5,16.0L219.0,16.5L220.0,16.5L221.0,16.5L222.0,16.5L223.0,16.5L223.5,17.0L224.0,17.5L225.0,17.5L225.5,18.0L226.0,18.5L226.5,19.0L226.5,20.0L227.0,20.5L228.0,20.5L228.5,20.0L228.5,19.0L228.5,18.0L229.0,17.5L230.0,17.5L231.0,17.5L231.5,18.0L231.5,19.0L232.0,19.5L233.0,19.5L233.5,19.0L234.0,18.5L235.0,18.5L235.5,18.0L236.0,17.5L237.0,17.5L238.0,17.5L238.5,17.0L239.0,16.5L239.5,17.0L240.0,17.5L241.0,17.5L242.0,17.5L242.5,17.0L243.0,16.5L244.0,16.5L245.0,16.5L245.5,17.0L246.0,17.5L246.5,17.0L246.5,16.0L246.0,15.5L245.5,15.0L246.0,14.5L247.0,14.5L247.5,15.0L248.0,15.5L249.0,15.5L250.0,15.5L251.0,15.5L251.5,16.0L252.0,16.5L253.0,16.5L254.0,16.5L254.5,16.0L254.0,15.5L253.5,15.0L253.5,14.0L254.0,13.5L254.5,13.0L254.5,12.0L255.0,11.5L256.0,11.5L256.5,11.0L257.0,10.5L258.0,10.5L259.0,10.5L259.5,11.0L259.5,12.0L259.5,13.0L259.5,14.0L259.5,15.0L259.5,16.0L259.5,17.0L259.5,18.0L259.5,19.0L259.0,19.5L258.5,20.0L259.0,20.5L260.0,20.5L260.5,20.0L261.0,19.5L261.5,19.0L261.5,18.0L261.5,17.0L261.0,16.5L260.5,16.0L260.5,15.0L260.5,14.0L260.5,13.0L260.5,12.0L261.0,11.5L262.0,11.5L262.5,12.0L263.0,12.5L264.0,12.5L264.5,12.0L265.0,11.5L266.0,11.5L267.0,11.5L267.5,11.0L267.5,10.0L268.0,9.5L269.0,9.5L270.0,9.5L271.0,9.5L271.5,10.0L272.0,10.5L272.5,10.0L273.0,9.5L273.5,9.0L273.5,8.0L274.0,7.5L275.0,7.5L276.0,7.5L277.0,7.5L278.0,7.5L278.5,7.0L279.0,6.5L280.0,6.5L281.0,6.5L282.0,6.5L283.0,6.5L283.5,6.0L284.0,5.5L285.0,5.5L286.0,5.5L287.0,5.5L288.0,5.5L289.0,5.5L289.5,5.0L290.0,4.5L290.5,4.0L291.0,3.5Z"/><path fill="#B9DDF7" stroke="none" d="M53.0,4.5L54.0,4.5L55.0,4.5L55.5,5.0L56.0,5.5L57.0,5.5L58.0,5.5L59.0,5.5L60.0,5.5L61.0,5.5L62.0,5.5L62.5,5.0L63.0,4.5L64.0,4.5L65.0,4.5L65.5,5.0L66.0,5.5L67.0,5.5L67.5,6.0L67.5,7.0L67.0,7.5L66.0,7.5L65.5,8.0L65.0,8.5L64.0,8.5L63.0,8.5L62.0,8.5L61.0,8.5L60.0,8.5L59.0,8.5L58.0,8.5L57.5,8.0L57.0,7.5L56.5,7.0L56.0,6.5L55.0,6.5L54.0,6.5L53.0,6.5L52.5,6.0L52.5,5.0L53.0,4.5Z"/><path fill="#B9DDF7" stroke="none" d="M69.0,4.5L70.0,4.5L71.0,4.5L71.5,5.0L72.0,5.5L73.0,5.5L73.5,6.0L74.0,6.5L74.5,7.0L74.0,7.5L73.5,8.0L73.0,8.5L72.5,8.0L72.0,7.5L71.0,7.5L70.5,7.0L70.0,6.5L69.0,6.5L68.5,6.0L68.5,5.0L69.0,4.5Z"/><path fill="#B9DDF7" stroke="none" d="M102.0,4.5L103.0,4.5L104.0,4.5L105.0,4.5L106.0,4.5L107.0,4.5L108.0,4.5L109.0,4.5L110.0,4.5L111.0,4.5L112.0,4.5L113.0,4.5L114.0,4.5L115.0,4.5L116.0,4.5L117.0,4.5L118.0,4.5L119.0,4.5L120.0,4.5L121.0,4.5L122.0,4.5L123.0,4.5L124.0,4.5L125.0,4.5L126.0,4.5L127.0,4.5L128.0,4.5L129.0,4.5L130.0,4.5L131.0,4.5L132.0,4.5L133.0,4.5L134.0,4.5L135.0,4.5L136.0,4.5L137.0,4.5L138.0,4.5L139.0,4.5L140.0,4.5L141.0,4.5L142.0,4.5L143.0,4.5L144.0,4.5L145.0,4.5L146.0,4.5L147.0,4.5L148.0,4.5L149.0,4.5L150.0,4.5L151.0,4.5L151.5,5.0L152.0,5.5L152.5,5.0L153.0,4.5L154.0,4.5L155.0,4.5L155.5,5.0L155.0,5.5L154.5,6.0L154.0,6.5L153.0,6.5L152.5,7.0L152.5,8.0L152.0,8.5L151.0,8.5L150.5,9.0L150.0,9.5L149.5,10.0L149.0,10.5L148.5,11.0L149.0,11.5L149.5,12.0L150.0,12.5L150.5,13.0L150.5,14.0L150.0,14.5L149.0,14.5L148.5,15.0L148.0,15.5L147.5,16.0L147.0,16.5L146.0,16.5L145.0,16.5L144.5,17.0L144.0,17.5L143.0,17.5L142.0,17.5L141.0,17.5L140.0,17.5L139.0,17.5L138.0,17.5L137.5,18.0L137.0,18.5L136.5,19.0L136.0,19.5L135.5,20.0L135.0,20.5L134.0,20.5L133.5,21.0L133.0,21.5L132.0,21.5L131.0,21.5L130.0,21.5L129.5,22.0L129.5,23.0L129.5,24.0L129.0,24.5L128.5,25.0L128.0,25.5L127.5,26.0L127.5,27.0L127.5,28.0L127.0,28.5L126.0,28.5L125.0,28.5L124.5,28.0L124.0,27.5L123.0,27.5L122.0,27.5L121.5,27.0L121.0,26.5L120.5,26.0L120.0,25.5L119.5,25.0L119.0,24.5L118.5,24.0L118.5,23.0L118.0,22.5L117.5,22.0L117.0,21.5L116.5,21.0L116.5,20.0L116.5,19.0L116.5,18.0L117.0,17.5L118.0,17.5L118.5,17.0L119.0,16.5L119.5,16.0L119.5,15.0L119.0,14.5L118.5,14.0L118.0,13.5L117.5,13.0L117.0,12.5L116.5,13.0L116.0,13.5L115.0,13.5L114.5,13.0L114.5,12.0L114.5,11.0L114.5,10.0L114.0,9.5L113.5,9.0L113.0,8.5L112.5,8.0L112.0,7.5L111.0,7.5L110.5,7.0L110.0,6.5L109.0,6.5L108.0,6.5L107.5,6.0L107.0,5.5L106.0,5.5L105.0,5.5L104.0,5.5L103.0,5.5L102.0,5.5L101.5,5.0L102.0,4.5Z"/><path fill="#B9DDF7" stroke="none" d="M252.0,4.5L252.5,5.0L253.0,5.5L253.5,6.0L253.0,6.5L252.0,6.5L251.5,7.0L251.0,7.5L250.0,7.5L249.0,7.5L248.0,7.5L247.5,8.0L247.0,8.5L246.0,8.5L245.0,8.5L244.5,9.0L244.0,9.5L243.0,9.5L242.5,10.0L242.0,10.5L241.5,11.0L241.5,12.0L242.0,12.5L242.5,13.0L242.5,14.0L242.0,14.5L241.0,14.5L240.0,14.5L239.0,14.5L238.5,14.0L238.0,13.5L237.5,13.0L237.5,12.0L238.0,11.5L238.5,11.0L239.0,10.5L239.5,10.0L240.0,9.5L240.5,9.0L241.0,8.5L241.5,8.0L242.0,7.5L242.5,7.0L243.0,6.5L244.0,6.5L245.0,6.5L246.0,6.5L247.0,6.5L247.5,6.0L248.0,5.5L249.0,5.5L250.0,5.5L251.0,5.5L251.5,5.0L252.0,4.5Z"/><path fill="#B9DDF7" stroke="none" d="M370.0,4.5L371.0,4.5L372.0,4.5L373.0,4.5L374.0,4.5L375.0,4.5L376.0,4.5L377.0,4.5L378.0,4.5L379.0,4.5L380.0,4.5L381.0,4.5L382.0,4.5L383.0,4.5L384.0,4.5L385.0,4.5L386.0,4.5L387.0,4.5L388.0,4.5L389.0,4.5L390.0,4.5L391.0,4.5L392.0,4.5L393.0,4.5L394.0,4.5L395.0,4.5L396.0,4.5L397.0,4.5L398.0,4.5L399.0,4.5L400.0,4.5L401.0,4.5L402.0,4.5L403.0,4.5L403.5,5.0L403.5,6.0L403.5,7.0L403.5,8.0L403.5,9.0L403.5,10.0L403.5,11.0L403.0,11.5L402.0,11.5L401.0,11.5L400.0,11.5L399.5,12.0L399.0,12.5L398.0,12.5L397.0,12.5L396.0,12.5L395.0,12.5L394.0,12.5L393.0,12.5L392.0,12.5L391.0,12.5L390.0,12.5L389.5,13.0L389.0,13.5L388.5,14.0L388.0,14.5L387.5,15.0L388.0,15.5L388.5,16.0L389.0,16.5L390.0,16.5L391.0,16.5L391.5,17.0L392.0,17.5L392.5,18.0L393.0,18.5L394.0,18.5L394.5,19.0L395.0,19.5L395.5,20.0L395.0,20.5L394.5,21.0L394.0,21.5L393.0,21.5L392.5,22.0L392.5,23.0L392.0,23.5L391.0,23.5L390.5,23.0L390.0,22.5L389.5,22.0L389.5,21.0L389.0,20.5L388.0,20.5L387.5,20.0L387.5,19.0L387.0,18.5L386.5,18.0L386.0,17.5L385.5,17.0L385.0,16.5L384.0,16.5L383.0,16.5L382.0,16.5L381.0,16.5L380.0,16.5L379.0,16.5L378.5,17.0L378.0,17.5L377.5,18.0L377.0,18.5L376.0,18.5L375.0,18.5L374.5,18.0L374.0,17.5L373.0,17.5L372.0,17.5L371.5,17.0L371.0,16.5L370.0,16.5L369.5,16.0L369.5,15.0L369.5,14.0L369.0,13.5L368.5,13.0L368.5,12.0L369.0,11.5L370.0,11.5L370.5,11.0L370.5,10.0L370.5,9.0L370.5,8.0L370.0,7.5L369.0,7.5L368.5,7.0L368.5,6.0L369.0,5.5L369.5,5.0L370.0,4.5Z"/><path fill="#B9DDF7" stroke="none" d="M78.0,5.5L77.5,6.0L77.5,7.0L78.0,7.5L79.0,7.5L79.5,7.0L79.5,6.0L79.0,5.5L78.0,5.5Z"/><path fill="#B9DDF7" stroke="none" d="M366.0,5.5L367.0,5.5L367.5,6.0L367.5,7.0L367.0,7.5L366.5,7.0L366.0,6.5L365.5,6.0L366.0,5.5Z"/><path fill="#B9DDF7" stroke="none" d="M80.0,8.5L79.5,9.0L79.5,10.0L79.5,11.0L79.0,11.5L78.0,11.5L77.5,12.0L77.5,13.0L78.0,13.5L78.5,14.0L79.0,14.5L80.0,14.5L80.5,15.0L81.0,15.5L81.5,16.0L82.0,16.5L82.5,17.0L83.0,17.5L84.0,17.5L84.5,17.0L85.0,16.5L85.5,16.0L85.5,15.0L85.0,14.5L84.5,15.0L84.0,15.5L83.5,15.0L83.0,14.5L82.5,14.0L82.0,13.5L81.5,13.0L81.5,12.0L81.5,11.0L82.0,10.5L82.5,10.0L83.0,9.5L83.5,9.0L83.0,8.5L82.0,8.5L81.0,8.5L80.0,8.5Z"/><path fill="#B9DDF7" stroke="none" d="M359.0,11.5L360.0,11.5L361.0,11.5L361.5,12.0L362.0,12.5L362.5,13.0L362.0,13.5L361.0,13.5L360.5,14.0L360.0,14.5L359.0,14.5L358.5,14.0L358.0,13.5L357.5,13.0L358.0,12.5L358.5,12.0L359.0,11.5Z"/><path fill="#B9DDF7" stroke="none" d="M117.0,13.5L117.5,14.0L117.5,15.0L117.0,15.5L116.5,16.0L116.0,16.5L115.5,16.0L115.5,15.0L116.0,14.5L116.5,14.0L117.0,13.5Z"/><path fill="#B9DDF7" stroke="none" d="M76.0,15.5L75.5,16.0L75.5,17.0L76.0,17.5L76.5,17.0L76.5,16.0L76.0,15.5Z"/><path fill="#B9DDF7" stroke="none" d="M64.0,16.5L63.5,17.0L64.0,17.5L65.0,17.5L65.5,17.0L65.0,16.5L64.0,16.5Z"/><path fill="#B9DDF7" stroke="none" d="M93.0,17.5L94.0,17.5L94.5,18.0L94.5,19.0L94.0,19.5L93.0,19.5L92.5,19.0L92.5,18.0L93.0,17.5Z"/><path fill="#B9DDF7" stroke="none" d="M51.0,19.5L50.5,20.0L50.5,21.0L51.0,21.5L51.5,21.0L52.0,20.5L53.0,20.5L54.0,20.5L54.5,20.0L54.0,19.5L53.0,19.5L52.0,19.5L51.0,19.5Z"/><path fill="#B9DDF7" stroke="none" d="M157.0,19.5L158.0,19.5L158.5,20.0L159.0,20.5L160.0,20.5L161.0,20.5L162.0,20.5L162.5,20.0L163.0,19.5L164.0,19.5L165.0,19.5L166.0,19.5L166.5,20.0L166.5,21.0L166.5,22.0L166.0,22.5L165.0,22.5L164.5,23.0L164.0,23.5L163.0,23.5L162.5,24.0L162.0,24.5L161.0,24.5L160.0,24.5L159.0,24.5L158.5,24.0L158.0,23.5L157.5,23.0L157.5,22.0L157.0,21.5L156.5,21.0L156.5,20.0L157.0,19.5Z"/><path fill="#B9DDF7" stroke="none" d="M220.0,20.5L219.5,21.0L220.0,21.5L220.5,22.0L220.5,23.0L221.0,23.5L222.0,23.5L222.5,23.0L222.5,22.0L222.0,21.5L221.5,21.0L221.0,20.5L220.0,20.5Z"/><path fill="#B9DDF7" stroke="none" d="M224.0,20.5L223.5,21.0L224.0,21.5L225.0,21.5L225.5,21.0L225.0,20.5L224.0,20.5Z"/><path fill="#B9DDF7" stroke="none" d="M383.0,20.5L384.0,20.5L385.0,20.5L386.0,20.5L387.0,20.5L387.5,21.0L388.0,21.5L388.5,22.0L388.0,22.5L387.5,23.0L387.0,23.5L386.0,23.5L385.5,23.0L385.0,22.5L384.5,23.0L384.0,23.5L383.5,24.0L383.5,25.0L383.0,25.5L382.0,25.5L381.5,25.0L381.0,24.5L380.5,24.0L380.0,23.5L379.0,23.5L378.5,23.0L379.0,22.5L379.5,22.0L380.0,21.5L381.0,21.5L382.0,21.5L382.5,21.0L383.0,20.5Z"/><path fill="#B9DDF7" stroke="none" d="M395.0,21.5L396.0,21.5L396.5,22.0L396.0,22.5L395.0,22.5L394.5,22.0L395.0,21.5Z"/><path fill="#B9DDF7" stroke="none" d="M2.0,22.5L2.5,23.0L3.0,23.5L4.0,23.5L4.5,24.0L4.0,24.5L3.0,24.5L2.0,24.5L1.5,24.0L1.5,23.0L2.0,22.5Z"/><path fill="#B9DDF7" stroke="none" d="M369.0,24.5L370.0,24.5L370.5,25.0L370.5,26.0L370.0,26.5L369.5,26.0L369.0,25.5L368.5,25.0L369.0,24.5Z"/><path fill="#B9DDF7" stroke="none" d="M211.0,28.5L210.5,29.0L211.0,29.5L212.0,29.5L213.0,29.5L213.5,29.0L213.0,28.5L212.0,28.5L211.0,28.5Z"/><path fill="#B9DDF7" stroke="none" d="M41.0,34.5L41.5,35.0L42.0,35.5L42.5,36.0L42.5,37.0L42.0,37.5L41.5,37.0L41.0,36.5L40.5,36.0L40.5,35.0L41.0,34.5Z"/><path fill="#B9DDF7" stroke="none" d="M176.0,34.5L177.0,34.5L177.5,35.0L177.5,36.0L178.0,36.5L178.5,37.0L178.0,37.5L177.5,38.0L177.0,38.5L176.0,38.5L175.5,39.0L175.0,39.5L174.0,39.5L173.0,39.5L172.5,39.0L173.0,38.5L173.5,38.0L173.5,37.0L173.5,36.0L174.0,35.5L175.0,35.5L175.5,35.0L176.0,34.5Z"/><path fill="#B9DDF7" stroke="none" d="M6.0,35.5L7.0,35.5L7.5,36.0L7.0,36.5L6.5,37.0L6.0,37.5L5.5,37.0L5.5,36.0L6.0,35.5Z"/><path fill="#B9DDF7" stroke="none" d="M83.0,41.5L82.5,42.0L82.0,42.5L81.0,42.5L80.5,43.0L81.0,43.5L82.0,43.5L82.5,43.0L83.0,42.5L84.0,42.5L84.5,43.0L85.0,43.5L85.5,43.0L85.5,42.0L85.0,41.5L84.0,41.5L83.0,41.5Z"/><path fill="#B9DDF7" stroke="none" d="M88.0,43.5L87.5,44.0L87.5,45.0L88.0,45.5L89.0,45.5L89.5,45.0L89.0,44.5L88.5,44.0L88.0,43.5Z"/><path fill="#B9DDF7" stroke="none" d="M217.0,44.5L216.5,45.0L216.0,45.5L215.0,45.5L214.0,45.5L213.0,45.5L212.5,46.0L212.0,46.5L211.0,46.5L210.5,47.0L210.0,47.5L209.0,47.5L208.5,47.0L208.0,46.5L207.0,46.5L206.5,47.0L206.0,47.5L205.0,47.5L204.0,47.5L203.0,47.5L202.5,48.0L202.5,49.0L202.5,50.0L202.0,50.5L201.5,50.0L201.0,49.5L200.5,49.0L201.0,48.5L201.5,48.0L201.0,47.5L200.0,47.5L199.0,47.5L198.5,48.0L198.5,49.0L198.5,50.0L199.0,50.5L200.0,50.5L200.5,51.0L200.0,51.5L199.0,51.5L198.5,52.0L199.0,52.5L200.0,52.5L200.5,53.0L200.0,53.5L199.0,53.5L198.0,53.5L197.5,53.0L197.5,52.0L197.5,51.0L197.5,50.0L197.5,49.0L197.0,48.5L196.5,49.0L196.5,50.0L196.5,51.0L196.0,51.5L195.5,52.0L195.5,53.0L195.5,54.0L195.5,55.0L195.0,55.5L194.5,56.0L194.5,57.0L194.5,58.0L195.0,58.5L195.5,59.0L196.0,59.5L197.0,59.5L198.0,59.5L199.0,59.5L200.0,59.5L200.5,60.0L201.0,60.5L201.5,61.0L202.0,61.5L203.0,61.5L204.0,61.5L205.0,61.5L205.5,61.0L205.5,60.0L205.5,59.0L206.0,58.5L207.0,58.5L207.5,59.0L208.0,59.5L209.0,59.5L209.5,60.0L210.0,60.5L211.0,60.5L212.0,60.5L213.0,60.5L214.0,60.5L215.0,60.5L216.0,60.5L217.0,60.5L218.0,60.5L218.5,61.0L219.0,61.5L219.5,61.0L220.0,60.5L220.5,60.0L220.5,59.0L221.0,58.5L221.5,58.0L221.5,57.0L221.0,56.5L220.5,56.0L220.0,55.5L219.5,56.0L219.0,56.5L218.0,56.5L217.0,56.5L216.5,56.0L216.0,55.5L215.5,56.0L215.0,56.5L214.0,56.5L213.0,56.5L212.0,56.5L211.5,56.0L211.0,55.5L210.5,55.0L211.0,54.5L211.5,54.0L211.0,53.5L210.5,53.0L211.0,52.5L212.0,52.5L213.0,52.5L213.5,52.0L213.5,51.0L213.5,50.0L213.5,49.0L213.5,48.0L213.0,47.5L212.5,47.0L213.0,46.5L214.0,46.5L214.5,47.0L214.5,48.0L214.5,49.0L214.5,50.0L214.5,51.0L215.0,51.5L215.5,52.0L216.0,52.5L216.5,52.0L216.5,51.0L217.0,50.5L217.5,51.0L218.0,51.5L218.5,52.0L219.0,52.5L219.5,52.0L219.5,51.0L219.5,50.0L219.5,49.0L219.5,48.0L220.0,47.5L220.5,48.0L220.5,49.0L220.5,50.0L220.5,51.0L221.0,51.5L221.5,51.0L222.0,50.5L223.0,50.5L224.0,50.5L225.0,50.5L226.0,50.5L226.5,50.0L226.5,49.0L226.0,48.5L225.0,48.5L224.5,48.0L224.0,47.5L223.5,47.0L223.0,46.5L222.5,46.0L223.0,45.5L223.5,45.0L223.0,44.5L222.0,44.5L221.0,44.5L220.5,45.0L220.0,45.5L219.0,45.5L218.0,45.5L217.5,45.0L217.0,44.5Z"/><path fill="#B9DDF7" stroke="none" d="M237.0,44.5L236.5,45.0L236.0,45.5L235.0,45.5L234.5,46.0L234.0,46.5L233.5,47.0L233.5,48.0L234.0,48.5L234.5,49.0L235.0,49.5L235.5,50.0L236.0,50.5L236.5,51.0L236.5,52.0L236.0,52.5L235.5,53.0L236.0,53.5L236.5,54.0L237.0,54.5L238.0,54.5L239.0,54.5L240.0,54.5L240.5,54.0L240.0,53.5L239.5,53.0L239.5,52.0L239.5,51.0L239.5,50.0L239.0,49.5L238.5,49.0L238.0,48.5L237.5,48.0L237.5,47.0L238.0,46.5L238.5,46.0L239.0,45.5L239.5,45.0L239.0,44.5L238.0,44.5L237.0,44.5Z"/><path fill="#B9DDF7" stroke="none" d="M327.0,44.5L327.5,45.0L327.5,46.0L327.0,46.5L326.5,46.0L326.5,45.0L327.0,44.5Z"/><path fill="#B9DDF7" stroke="none" d="M84.0,45.5L83.5,46.0L83.5,47.0L84.0,47.5L84.5,47.0L85.0,46.5L85.5,46.0L85.0,45.5L84.0,45.5Z"/><path fill="#B9DDF7" stroke="none" d="M186.0,45.5L185.5,46.0L185.0,46.5L184.5,47.0L184.0,47.5L183.5,48.0L183.5,49.0L183.5,50.0L183.5,51.0L183.5,52.0L183.5,53.0L184.0,53.5L184.5,53.0L185.0,52.5L185.5,53.0L186.0,53.5L186.5,54.0L186.5,55.0L187.0,55.5L187.5,56.0L188.0,56.5L189.0,56.5L190.0,56.5L190.5,56.0L190.0,55.5L189.0,55.5L188.0,55.5L187.5,55.0L187.5,54.0L188.0,53.5L189.0,53.5L190.0,53.5L190.5,54.0L191.0,54.5L191.5,55.0L192.0,55.5L192.5,55.0L192.0,54.5L191.5,54.0L191.5,53.0L192.0,52.5L193.0,52.5L193.5,52.0L193.0,51.5L192.5,51.0L192.5,50.0L192.5,49.0L193.0,48.5L193.5,48.0L194.0,47.5L194.5,48.0L195.0,48.5L195.5,48.0L195.0,47.5L194.5,47.0L194.0,46.5L193.5,46.0L193.0,45.5L192.5,46.0L192.0,46.5L191.5,47.0L191.0,47.5L190.5,47.0L190.0,46.5L189.0,46.5L188.0,46.5L187.5,47.0L187.0,47.5L186.5,48.0L186.0,48.5L185.5,49.0L185.5,50.0L185.0,50.5L184.5,50.0L184.5,49.0L184.5,48.0L185.0,47.5L185.5,47.0L186.0,46.5L186.5,46.0L186.0,45.5Z"/><path fill="#B9DDF7" stroke="none" d="M246.0,45.5L245.5,46.0L245.5,47.0L246.0,47.5L246.5,47.0L246.5,46.0L246.0,45.5Z"/><path fill="#B9DDF7" stroke="none" d="M208.0,47.5L208.5,48.0L208.5,49.0L208.0,49.5L207.5,50.0L207.5,51.0L207.0,51.5L206.5,51.0L206.5,50.0L206.5,49.0L207.0,48.5L207.5,48.0L208.0,47.5Z"/><path fill="#B9DDF7" stroke="none" d="M211.0,47.5L211.5,48.0L211.5,49.0L211.5,50.0L211.0,50.5L210.5,50.0L210.5,49.0L210.5,48.0L211.0,47.5Z"/><path fill="#B9DDF7" stroke="none" d="M328.0,47.5L328.5,48.0L328.5,49.0L329.0,49.5L330.0,49.5L330.5,50.0L330.0,50.5L329.5,51.0L329.0,51.5L328.0,51.5L327.0,51.5L326.5,52.0L326.5,53.0L327.0,53.5L327.5,54.0L327.0,54.5L326.5,55.0L326.5,56.0L326.5,57.0L326.5,58.0L326.0,58.5L325.5,59.0L325.0,59.5L324.0,59.5L323.5,60.0L323.0,60.5L322.0,60.5L321.0,60.5L320.0,60.5L319.5,61.0L319.0,61.5L318.0,61.5L317.5,62.0L317.0,62.5L316.0,62.5L315.5,62.0L315.5,61.0L316.0,60.5L316.5,60.0L317.0,59.5L318.0,59.5L318.5,59.0L319.0,58.5L320.0,58.5L320.5,58.0L321.0,57.5L322.0,57.5L322.5,57.0L323.0,56.5L323.5,56.0L324.0,55.5L324.5,55.0L324.5,54.0L325.0,53.5L325.5,53.0L325.5,52.0L325.5,51.0L325.5,50.0L326.0,49.5L326.5,49.0L327.0,48.5L327.5,48.0L328.0,47.5Z"/><path fill="#B9DDF7" stroke="none" d="M51.0,48.5L51.5,49.0L51.5,50.0L51.0,50.5L50.5,50.0L50.5,49.0L51.0,48.5Z"/><path fill="#B9DDF7" stroke="none" d="M178.0,50.5L177.5,51.0L177.5,52.0L177.5,53.0L178.0,53.5L179.0,53.5L179.5,53.0L180.0,52.5L180.5,52.0L180.0,51.5L179.5,51.0L179.0,50.5L178.0,50.5Z"/><path fill="#B9DDF7" stroke="none" d="M175.0,51.5L174.5,52.0L174.5,53.0L174.5,54.0L175.0,54.5L175.5,54.0L175.5,53.0L175.5,52.0L175.0,51.5Z"/><path fill="#B9DDF7" stroke="none" d="M209.0,51.5L210.0,51.5L210.5,52.0L210.0,52.5L209.0,52.5L208.5,52.0L209.0,51.5Z"/><path fill="#B9DDF7" stroke="none" d="M203.0,52.5L204.0,52.5L204.5,53.0L204.0,53.5L203.0,53.5L202.5,53.0L203.0,52.5Z"/><path fill="#B9DDF7" stroke="none" d="M207.0,52.5L208.0,52.5L208.5,53.0L208.5,54.0L209.0,54.5L209.5,55.0L209.5,56.0L209.0,56.5L208.0,56.5L207.5,56.0L207.0,55.5L206.5,55.0L206.5,54.0L206.5,53.0L207.0,52.5Z"/><path fill="#B9DDF7" stroke="none" d="M54.0,53.5L54.5,54.0L54.5,55.0L54.0,55.5L53.5,55.0L53.5,54.0L54.0,53.5Z"/><path fill="#B9DDF7" stroke="none" d="M183.0,54.5L182.5,55.0L182.0,55.5L181.0,55.5L180.5,56.0L180.0,56.5L179.0,56.5L178.5,57.0L179.0,57.5L180.0,57.5L181.0,57.5L182.0,57.5L182.5,57.0L183.0,56.5L183.5,56.0L184.0,55.5L185.0,55.5L185.5,55.0L185.0,54.5L184.0,54.5L183.0,54.5Z"/><path fill="#B9DDF7" stroke="none" d="M199.0,54.5L200.0,54.5L200.5,55.0L200.5,56.0L200.0,56.5L199.0,56.5L198.5,56.0L198.5,55.0L199.0,54.5Z"/><path fill="#B9DDF7" stroke="none" d="M56.0,56.5L57.0,56.5L58.0,56.5L58.5,57.0L58.0,57.5L57.0,57.5L56.0,57.5L55.5,57.0L56.0,56.5Z"/><path fill="#B9DDF7" stroke="none" d="M63.0,57.5L64.0,57.5L65.0,57.5L66.0,57.5L66.5,58.0L67.0,58.5L67.5,59.0L68.0,59.5L68.5,60.0L68.5,61.0L69.0,61.5L69.5,62.0L69.0,62.5L68.5,63.0L68.5,64.0L68.0,64.5L67.5,65.0L67.0,65.5L66.5,66.0L66.0,66.5L65.5,67.0L65.0,67.5L64.5,68.0L64.0,68.5L63.5,68.0L63.0,67.5L62.0,67.5L61.5,67.0L61.0,66.5L60.5,66.0L60.0,65.5L59.5,65.0L59.0,64.5L58.5,64.0L58.5,63.0L58.5,62.0L58.5,61.0L58.5,60.0L59.0,59.5L59.5,59.0L60.0,58.5L61.0,58.5L62.0,58.5L62.5,58.0L63.0,57.5Z"/><path fill="#B9DDF7" stroke="none" d="M64.0,58.5L63.5,59.0L63.0,59.5L62.0,59.5L61.0,59.5L60.5,60.0L61.0,60.5L61.5,61.0L61.5,62.0L61.0,62.5L60.5,63.0L61.0,63.5L62.0,63.5L62.5,64.0L62.0,64.5L61.5,65.0L62.0,65.5L63.0,65.5L64.0,65.5L65.0,65.5L65.5,65.0L66.0,64.5L66.5,64.0L67.0,63.5L67.5,63.0L67.5,62.0L67.5,61.0L67.0,60.5L66.5,60.0L66.0,59.5L65.5,59.0L65.0,58.5L64.0,58.5Z"/><path fill="#B9DDF7" stroke="none" d="M33.0,61.5L33.5,62.0L33.5,63.0L33.5,64.0L33.0,64.5L32.5,64.0L32.5,63.0L32.5,62.0L33.0,61.5Z"/><path fill="#B9DDF7" stroke="none" d="M52.0,62.5L52.5,63.0L52.5,64.0L52.0,64.5L51.5,64.0L51.5,63.0L52.0,62.5Z"/><path fill="#B9DDF7" stroke="none" d="M56.0,62.5L56.5,63.0L56.5,64.0L56.0,64.5L55.5,64.0L55.5,63.0L56.0,62.5Z"/><path fill="#B9DDF7" stroke="none" d="M45.0,64.5L46.0,64.5L46.5,65.0L46.0,65.5L45.0,65.5L44.5,65.0L45.0,64.5Z"/><path fill="#B9DDF7" stroke="none" d="M27.0,65.5L28.0,65.5L28.5,66.0L28.0,66.5L27.0,66.5L26.5,66.0L27.0,65.5Z"/><path fill="#B9DDF7" stroke="none" d="M35.0,65.5L36.0,65.5L37.0,65.5L37.5,66.0L37.0,66.5L36.0,66.5L35.0,66.5L34.5,66.0L35.0,65.5Z"/><path fill="#B9DDF7" stroke="none" d="M53.0,65.5L54.0,65.5L54.5,66.0L54.0,66.5L53.0,66.5L52.5,66.0L53.0,65.5Z"/><path fill="#B9DDF7" stroke="none" d="M89.0,65.5L90.0,65.5L90.5,66.0L91.0,66.5L92.0,66.5L93.0,66.5L94.0,66.5L95.0,66.5L96.0,66.5L97.0,66.5L97.5,67.0L98.0,67.5L98.5,68.0L98.5,69.0L99.0,69.5L99.5,70.0L100.0,70.5L100.5,71.0L100.5,72.0L100.5,73.0L100.5,74.0L100.0,74.5L99.5,75.0L99.5,76.0L99.0,76.5L98.5,77.0L98.0,77.5L97.5,77.0L97.0,76.5L96.5,76.0L96.0,75.5L95.5,75.0L96.0,74.5L96.5,74.0L97.0,73.5L97.5,74.0L98.0,74.5L98.5,74.0L98.5,73.0L98.5,72.0L98.5,71.0L98.0,70.5L97.0,70.5L96.5,70.0L96.0,69.5L95.0,69.5L94.5,69.0L94.0,68.5L93.0,68.5L92.5,69.0L92.0,69.5L91.5,70.0L91.0,70.5L90.5,71.0L90.5,72.0L90.5,73.0L90.0,73.5L89.5,74.0L89.0,74.5L88.5,74.0L88.0,73.5L87.0,73.5L86.5,73.0L86.5,72.0L87.0,71.5L87.5,71.0L87.5,70.0L88.0,69.5L88.5,69.0L89.0,68.5L89.5,68.0L89.0,67.5L88.0,67.5L87.0,67.5L86.5,67.0L87.0,66.5L88.0,66.5L88.5,66.0L89.0,65.5Z"/><path fill="#B9DDF7" stroke="none" d="M84.0,67.5L85.0,67.5L85.5,68.0L85.0,68.5L84.5,69.0L84.5,70.0L84.5,71.0L84.0,71.5L83.5,71.0L83.5,70.0L83.5,69.0L83.5,68.0L84.0,67.5Z"/><path fill="#B9DDF7" stroke="none" d="M113.0,68.5L114.0,68.5L114.5,69.0L114.5,70.0L114.5,71.0L114.0,71.5L113.5,71.0L113.5,70.0L113.0,69.5L112.5,69.0L113.0,68.5Z"/><path fill="#B9DDF7" stroke="none" d="M119.0,68.5L119.5,69.0L119.5,70.0L119.5,71.0L119.0,71.5L118.5,71.0L118.5,70.0L118.5,69.0L119.0,68.5Z"/><path fill="#B9DDF7" stroke="none" d="M125.0,68.5L125.5,69.0L125.5,70.0L125.5,71.0L125.5,72.0L125.0,72.5L124.5,72.0L124.5,71.0L124.5,70.0L124.5,69.0L125.0,68.5Z"/><path fill="#B9DDF7" stroke="none" d="M307.0,68.5L308.0,68.5L308.5,69.0L308.0,69.5L307.0,69.5L306.5,69.0L307.0,68.5Z"/><path fill="#B9DDF7" stroke="none" d="M132.0,69.5L133.0,69.5L133.5,70.0L133.0,70.5L132.0,70.5L131.5,70.0L132.0,69.5Z"/><path fill="#B9DDF7" stroke="none" d="M78.0,71.5L79.0,71.5L79.5,72.0L79.0,72.5L78.0,72.5L77.5,72.0L78.0,71.5Z"/><path fill="#B9DDF7" stroke="none" d="M83.0,71.5L83.5,72.0L83.5,73.0L83.0,73.5L82.5,73.0L82.5,72.0L83.0,71.5Z"/><path fill="#B9DDF7" stroke="none" d="M119.0,72.5L120.0,72.5L120.5,73.0L120.0,73.5L119.0,73.5L118.5,73.0L119.0,72.5Z"/><path fill="#B9DDF7" stroke="none" d="M297.0,72.5L298.0,72.5L298.5,73.0L298.0,73.5L297.0,73.5L296.5,73.0L297.0,72.5Z"/><path fill="#B9DDF7" stroke="none" d="M77.0,73.5L78.0,73.5L78.5,74.0L78.0,74.5L77.0,74.5L76.5,74.0L77.0,73.5Z"/><path fill="#B9DDF7" stroke="none" d="M308.0,73.5L309.0,73.5L309.5,74.0L309.5,75.0L309.5,76.0L309.5,77.0L309.5,78.0L310.0,78.5L311.0,78.5L311.5,79.0L311.5,80.0L311.5,81.0L311.5,82.0L312.0,82.5L312.5,82.0L312.5,81.0L313.0,80.5L313.5,80.0L313.5,79.0L314.0,78.5L314.5,78.0L315.0,77.5L315.5,77.0L316.0,76.5L317.0,76.5L318.0,76.5L318.5,76.0L319.0,75.5L320.0,75.5L320.5,76.0L321.0,76.5L322.0,76.5L323.0,76.5L323.5,77.0L324.0,77.5L324.5,78.0L325.0,78.5L325.5,79.0L325.5,80.0L325.5,81.0L325.5,82.0L325.5,83.0L325.5,84.0L325.5,85.0L325.5,86.0L325.0,86.5L324.5,87.0L324.0,87.5L323.5,88.0L323.0,88.5L322.0,88.5L321.0,88.5L320.5,89.0L320.0,89.5L319.0,89.5L318.0,89.5L317.0,89.5L316.5,89.0L316.0,88.5L315.5,88.0L316.0,87.5L316.5,87.0L317.0,86.5L317.5,86.0L318.0,85.5L319.0,85.5L320.0,85.5L321.0,85.5L321.5,86.0L322.0,86.5L322.5,86.0L323.0,85.5L323.5,85.0L323.5,84.0L323.0,83.5L322.5,83.0L322.5,82.0L323.0,81.5L323.5,81.0L323.0,80.5L322.0,80.5L321.5,80.0L321.0,79.5L320.0,79.5L319.5,79.0L319.0,78.5L318.5,79.0L318.0,79.5L317.0,79.5L316.5,80.0L316.5,81.0L316.0,81.5L315.5,82.0L315.5,83.0L316.0,83.5L316.5,84.0L316.0,84.5L315.5,85.0L315.0,85.5L314.5,85.0L314.0,84.5L313.5,85.0L313.0,85.5L312.0,85.5L311.0,85.5L310.5,85.0L310.0,84.5L309.5,84.0L309.5,83.0L309.5,82.0L309.5,81.0L309.0,80.5L308.5,80.0L308.0,79.5L307.5,79.0L307.5,78.0L307.0,77.5L306.5,77.0L306.5,76.0L306.5,75.0L307.0,74.5L307.5,74.0L308.0,73.5Z"/><path fill="#B9DDF7" stroke="none" d="M79.0,74.5L79.5,75.0L79.5,76.0L79.0,76.5L78.5,76.0L78.5,75.0L79.0,74.5Z"/><path fill="#B9DDF7" stroke="none" d="M93.0,75.5L94.0,75.5L95.0,75.5L95.5,76.0L96.0,76.5L96.5,77.0L97.0,77.5L97.5,78.0L97.0,78.5L96.0,78.5L95.5,78.0L95.0,77.5L94.0,77.5L93.0,77.5L92.5,77.0L92.5,76.0L93.0,75.5Z"/><path fill="#B9DDF7" stroke="none" d="M80.0,76.5L81.0,76.5L82.0,76.5L83.0,76.5L83.5,77.0L83.0,77.5L82.0,77.5L81.0,77.5L80.0,77.5L79.5,77.0L80.0,76.5Z"/><path fill="#B9DDF7" stroke="none" d="M89.0,76.5L90.0,76.5L90.5,77.0L90.0,77.5L89.0,77.5L88.5,77.0L89.0,76.5Z"/><path fill="#B9DDF7" stroke="none" d="M84.0,77.5L84.5,78.0L84.5,79.0L84.0,79.5L83.5,79.0L83.5,78.0L84.0,77.5Z"/><path fill="#B9DDF7" stroke="none" d="M91.0,77.5L92.0,77.5L92.5,78.0L92.0,78.5L91.0,78.5L90.5,78.0L91.0,77.5Z"/><path fill="#B9DDF7" stroke="none" d="M99.0,79.5L100.0,79.5L101.0,79.5L102.0,79.5L103.0,79.5L103.5,80.0L104.0,80.5L105.0,80.5L105.5,81.0L106.0,81.5L106.5,82.0L107.0,82.5L107.5,83.0L107.5,84.0L108.0,84.5L108.5,85.0L109.0,85.5L109.5,86.0L109.5,87.0L109.0,87.5L108.5,87.0L108.0,86.5L107.5,86.0L107.0,85.5L106.5,86.0L107.0,86.5L107.5,87.0L107.0,87.5L106.0,87.5L105.5,87.0L105.5,86.0L105.5,85.0L106.0,84.5L106.5,84.0L106.0,83.5L105.0,83.5L104.5,83.0L104.0,82.5L103.0,82.5L102.0,82.5L101.5,83.0L101.0,83.5L100.5,84.0L100.0,84.5L99.5,85.0L99.5,86.0L100.0,86.5L100.5,87.0L100.0,87.5L99.0,87.5L98.5,87.0L98.5,86.0L98.5,85.0L98.5,84.0L98.5,83.0L98.5,82.0L98.0,81.5L97.5,82.0L97.0,82.5L96.5,82.0L96.5,81.0L97.0,80.5L98.0,80.5L98.5,80.0L99.0,79.5Z"/><path fill="#B9DDF7" stroke="none" d="M338.0,79.5L338.5,80.0L338.5,81.0L338.5,82.0L338.5,83.0L338.5,84.0L338.0,84.5L337.5,84.0L337.5,83.0L337.5,82.0L337.5,81.0L337.5,80.0L338.0,79.5Z"/><path fill="#B9DDF7" stroke="none" d="M359.0,79.5L359.5,80.0L359.5,81.0L359.0,81.5L358.5,81.0L358.5,80.0L359.0,79.5Z"/><path fill="#B9DDF7" stroke="none" d="M86.0,80.5L86.5,81.0L86.5,82.0L86.0,82.5L85.5,82.0L85.5,81.0L86.0,80.5Z"/><path fill="#B9DDF7" stroke="none" d="M94.0,80.5L95.0,80.5L95.5,81.0L95.5,82.0L95.0,82.5L94.0,82.5L93.5,82.0L93.5,81.0L94.0,80.5Z"/><path fill="#B9DDF7" stroke="none" d="M112.0,80.5L113.0,80.5L114.0,80.5L114.5,81.0L114.0,81.5L113.0,81.5L112.0,81.5L111.5,81.0L112.0,80.5Z"/><path fill="#B9DDF7" stroke="none" d="M124.0,80.5L125.0,80.5L125.5,81.0L125.0,81.5L124.0,81.5L123.5,81.0L124.0,80.5Z"/><path fill="#B9DDF7" stroke="none" d="M365.0,80.5L365.5,81.0L365.5,82.0L365.5,83.0L365.5,84.0L365.0,84.5L364.5,84.0L364.5,83.0L364.5,82.0L364.5,81.0L365.0,80.5Z"/><path fill="#B9DDF7" stroke="none" d="M369.0,80.5L369.5,81.0L369.5,82.0L369.0,82.5L368.5,82.0L368.5,81.0L369.0,80.5Z"/><path fill="#B9DDF7" stroke="none" d="M87.0,82.5L88.0,82.5L88.5,83.0L88.0,83.5L87.0,83.5L86.5,83.0L87.0,82.5Z"/><path fill="#B9DDF7" stroke="none" d="M119.0,82.5L120.0,82.5L120.5,83.0L120.0,83.5L119.0,83.5L118.5,83.0L119.0,82.5Z"/><path fill="#B9DDF7" stroke="none" d="M125.0,82.5L125.5,83.0L126.0,83.5L126.5,84.0L126.0,84.5L125.5,85.0L125.5,86.0L125.0,86.5L124.5,86.0L124.5,85.0L124.5,84.0L124.5,83.0L125.0,82.5Z"/><path fill="#B9DDF7" stroke="none" d="M335.0,82.5L335.5,83.0L335.5,84.0L335.0,84.5L334.5,84.0L334.5,83.0L335.0,82.5Z"/><path fill="#B9DDF7" stroke="none" d="M130.0,83.5L131.0,83.5L131.5,84.0L131.5,85.0L132.0,85.5L133.0,85.5L133.5,86.0L133.0,86.5L132.0,86.5L131.0,86.5L130.5,86.0L130.5,85.0L130.0,84.5L129.5,84.0L130.0,83.5Z"/><path fill="#B9DDF7" stroke="none" d="M137.0,83.5L137.5,84.0L137.5,85.0L137.5,86.0L137.0,86.5L136.5,86.0L136.5,85.0L136.5,84.0L137.0,83.5Z"/><path fill="#B9DDF7" stroke="none" d="M268.0,83.5L268.5,84.0L269.0,84.5L269.5,85.0L269.5,86.0L269.0,86.5L268.0,86.5L267.0,86.5L266.5,86.0L266.5,85.0L267.0,84.5L267.5,84.0L268.0,83.5Z"/><path fill="#B9DDF7" stroke="none" d="M90.0,84.5L91.0,84.5L92.0,84.5L93.0,84.5L93.5,85.0L93.5,86.0L93.5,87.0L93.5,88.0L93.5,89.0L93.5,90.0L93.5,91.0L93.5,92.0L93.0,92.5L92.5,92.0L92.5,91.0L92.5,90.0L92.5,89.0L92.5,88.0L92.5,87.0L92.5,86.0L92.0,85.5L91.0,85.5L90.0,85.5L89.5,85.0L90.0,84.5Z"/><path fill="#B9DDF7" stroke="none" d="M122.0,84.5L123.0,84.5L123.5,85.0L123.0,85.5L122.5,86.0L122.0,86.5L121.5,86.0L121.5,85.0L122.0,84.5Z"/><path fill="#B9DDF7" stroke="none" d="M135.0,84.5L135.5,85.0L135.5,86.0L135.0,86.5L134.5,86.0L134.5,85.0L135.0,84.5Z"/><path fill="#B9DDF7" stroke="none" d="M128.0,85.5L129.0,85.5L129.5,86.0L129.0,86.5L128.0,86.5L127.5,86.0L128.0,85.5Z"/><path fill="#B9DDF7" stroke="none" d="M305.0,85.5L305.5,86.0L306.0,86.5L306.5,87.0L306.5,88.0L306.0,88.5L305.5,89.0L305.5,90.0L306.0,90.5L306.5,91.0L307.0,91.5L307.5,92.0L307.5,93.0L307.0,93.5L306.5,94.0L306.5,95.0L306.0,95.5L305.5,96.0L305.5,97.0L305.0,97.5L304.5,98.0L304.0,98.5L303.0,98.5L302.5,98.0L302.0,97.5L301.0,97.5L300.0,97.5L299.0,97.5L298.5,97.0L298.0,96.5L297.5,96.0L297.5,95.0L297.5,94.0L297.0,93.5L296.5,93.0L296.5,92.0L297.0,91.5L297.5,91.0L298.0,90.5L299.0,90.5L299.5,90.0L300.0,89.5L300.5,89.0L301.0,88.5L301.5,88.0L302.0,87.5L303.0,87.5L303.5,87.0L304.0,86.5L304.5,86.0L305.0,85.5Z"/><path fill="#B9DDF7" stroke="none" d="M101.0,87.5L101.5,88.0L102.0,88.5L103.0,88.5L104.0,88.5L104.5,88.0L105.0,87.5L105.5,88.0L105.5,89.0L105.0,89.5L104.0,89.5L103.0,89.5L102.0,89.5L101.0,89.5L100.5,89.0L100.5,88.0L101.0,87.5Z"/><path fill="#B9DDF7" stroke="none" d="M283.0,87.5L284.0,87.5L284.5,88.0L285.0,88.5L285.5,89.0L286.0,89.5L286.5,90.0L287.0,90.5L287.5,91.0L288.0,91.5L289.0,91.5L289.5,92.0L290.0,92.5L291.0,92.5L291.5,93.0L291.5,94.0L291.5,95.0L292.0,95.5L292.5,96.0L293.0,96.5L293.5,97.0L294.0,97.5L294.5,98.0L294.5,99.0L294.0,99.5L293.5,100.0L293.5,101.0L293.0,101.5L292.5,101.0L292.0,100.5L291.0,100.5L290.5,100.0L290.5,99.0L290.0,98.5L289.5,98.0L289.0,97.5L288.5,97.0L288.5,96.0L288.0,95.5L287.5,95.0L287.5,94.0L287.0,93.5L286.5,93.0L286.0,92.5L285.5,92.0L285.0,91.5L284.5,91.0L284.0,90.5L283.5,90.0L283.0,89.5L282.5,89.0L282.5,88.0L283.0,87.5Z"/><path fill="#B9DDF7" stroke="none" d="M112.0,89.5L112.5,90.0L112.5,91.0L113.0,91.5L113.5,92.0L114.0,92.5L115.0,92.5L115.5,93.0L116.0,93.5L117.0,93.5L118.0,93.5L119.0,93.5L119.5,94.0L120.0,94.5L120.5,95.0L120.5,96.0L120.5,97.0L120.5,98.0L120.0,98.5L119.0,98.5L118.5,99.0L118.0,99.5L117.5,100.0L117.0,100.5L116.5,101.0L116.5,102.0L117.0,102.5L117.5,103.0L118.0,103.5L118.5,104.0L119.0,104.5L120.0,104.5L120.5,104.0L121.0,103.5L121.5,104.0L122.0,104.5L122.5,105.0L122.5,106.0L122.0,106.5L121.5,106.0L121.0,105.5L120.0,105.5L119.0,105.5L118.0,105.5L117.5,105.0L117.0,104.5L116.5,104.0L116.0,103.5L115.5,103.0L115.5,102.0L115.5,101.0L115.5,100.0L116.0,99.5L116.5,99.0L116.0,98.5L115.5,98.0L115.0,97.5L114.5,97.0L114.0,96.5L113.5,96.0L113.5,95.0L113.0,94.5L112.0,94.5L111.5,94.0L111.5,93.0L111.5,92.0L111.5,91.0L111.5,90.0L112.0,89.5Z"/><path fill="#B9DDF7" stroke="none" d="M195.0,89.5L194.5,90.0L194.5,91.0L194.0,91.5L193.5,92.0L193.5,93.0L193.5,94.0L194.0,94.5L195.0,94.5L195.5,94.0L196.0,93.5L197.0,93.5L198.0,93.5L199.0,93.5L200.0,93.5L200.5,93.0L200.0,92.5L199.5,92.0L199.5,91.0L199.0,90.5L198.5,90.0L198.0,89.5L197.0,89.5L196.0,89.5L195.0,89.5Z"/><path fill="#B9DDF7" stroke="none" d="M312.0,92.5L313.0,92.5L314.0,92.5L314.5,93.0L314.0,93.5L313.0,93.5L312.0,93.5L311.5,93.0L312.0,92.5Z"/><path fill="#B9DDF7" stroke="none" d="M76.0,93.5L77.0,93.5L77.5,94.0L77.0,94.5L76.0,94.5L75.5,94.0L76.0,93.5Z"/><path fill="#B9DDF7" stroke="none" d="M108.0,94.5L108.5,95.0L108.5,96.0L108.0,96.5L107.5,96.0L107.5,95.0L108.0,94.5Z"/><path fill="#B9DDF7" stroke="none" d="M310.0,94.5L310.5,95.0L311.0,95.5L311.5,96.0L312.0,96.5L312.5,97.0L312.0,97.5L311.5,98.0L311.0,98.5L310.5,99.0L310.5,100.0L310.0,100.5L309.5,100.0L309.0,99.5L308.5,99.0L308.5,98.0L308.5,97.0L308.5,96.0L309.0,95.5L309.5,95.0L310.0,94.5Z"/><path fill="#B9DDF7" stroke="none" d="M323.0,94.5L323.5,95.0L324.0,95.5L325.0,95.5L325.5,96.0L325.5,97.0L326.0,97.5L327.0,97.5L327.5,97.0L328.0,96.5L328.5,96.0L329.0,95.5L329.5,96.0L330.0,96.5L331.0,96.5L331.5,97.0L332.0,97.5L333.0,97.5L334.0,97.5L334.5,98.0L335.0,98.5L336.0,98.5L336.5,99.0L337.0,99.5L338.0,99.5L338.5,100.0L339.0,100.5L340.0,100.5L340.5,101.0L340.0,101.5L339.5,102.0L339.5,103.0L340.0,103.5L340.5,104.0L341.0,104.5L342.0,104.5L342.5,105.0L342.5,106.0L342.0,106.5L341.5,106.0L341.0,105.5L340.0,105.5L339.5,105.0L339.0,104.5L338.5,104.0L338.0,103.5L337.0,103.5L336.0,103.5L335.5,104.0L335.0,104.5L334.5,105.0L334.0,105.5L333.5,105.0L333.0,104.5L332.5,104.0L332.0,103.5L331.0,103.5L330.5,103.0L330.5,102.0L330.5,101.0L330.0,100.5L329.0,100.5L328.5,100.0L328.0,99.5L327.0,99.5L326.0,99.5L325.0,99.5L324.5,99.0L324.0,98.5L323.5,98.0L323.0,97.5L322.5,97.0L322.0,96.5L321.5,96.0L322.0,95.5L322.5,95.0L323.0,94.5Z"/><path fill="#B9DDF7" stroke="none" d="M3.0,95.5L3.5,96.0L3.5,97.0L3.0,97.5L2.5,97.0L2.5,96.0L3.0,95.5Z"/><path fill="#B9DDF7" stroke="none" d="M209.0,96.5L208.5,97.0L208.0,97.5L207.5,98.0L207.0,98.5L206.5,99.0L206.0,99.5L205.5,100.0L205.5,101.0L206.0,101.5L207.0,101.5L207.5,102.0L207.0,102.5L206.0,102.5L205.5,103.0L205.5,104.0L205.5,105.0L206.0,105.5L206.5,106.0L207.0,106.5L207.5,107.0L208.0,107.5L208.5,108.0L209.0,108.5L210.0,108.5L211.0,108.5L212.0,108.5L213.0,108.5L213.5,108.0L214.0,107.5L215.0,107.5L215.5,107.0L215.5,106.0L216.0,105.5L216.5,105.0L217.0,104.5L217.5,104.0L217.5,103.0L217.5,102.0L217.0,101.5L216.5,102.0L216.5,103.0L216.5,104.0L216.0,104.5L215.5,105.0L215.0,105.5L214.5,105.0L214.5,104.0L214.5,103.0L214.5,102.0L214.5,101.0L214.0,100.5L213.5,100.0L214.0,99.5L214.5,99.0L215.0,98.5L215.5,99.0L215.5,100.0L216.0,100.5L216.5,100.0L216.5,99.0L216.0,98.5L215.5,98.0L215.0,97.5L214.5,98.0L214.0,98.5L213.5,99.0L213.0,99.5L212.5,99.0L212.5,98.0L213.0,97.5L213.5,97.0L213.0,96.5L212.0,96.5L211.0,96.5L210.0,96.5L209.0,96.5Z"/><path fill="#B9DDF7" stroke="none" d="M90.0,97.5L90.5,98.0L90.5,99.0L90.0,99.5L89.5,99.0L89.5,98.0L90.0,97.5Z"/><path fill="#B9DDF7" stroke="none" d="M209.0,97.5L209.5,98.0L210.0,98.5L210.5,99.0L210.0,99.5L209.0,99.5L208.5,100.0L208.0,100.5L207.0,100.5L206.5,100.0L207.0,99.5L207.5,99.0L208.0,98.5L208.5,98.0L209.0,97.5Z"/><path fill="#B9DDF7" stroke="none" d="M108.0,98.5L108.5,99.0L108.5,100.0L108.0,100.5L107.5,101.0L107.0,101.5L106.5,102.0L106.5,103.0L106.5,104.0L107.0,104.5L108.0,104.5L108.5,105.0L109.0,105.5L109.5,105.0L110.0,104.5L111.0,104.5L111.5,104.0L111.5,103.0L111.5,102.0L111.5,101.0L111.0,100.5L110.0,100.5L109.5,100.0L109.5,99.0L110.0,98.5L111.0,98.5L111.5,99.0L112.0,99.5L112.5,100.0L113.0,100.5L113.5,101.0L113.5,102.0L113.5,103.0L113.5,104.0L113.0,104.5L112.5,105.0L112.0,105.5L111.5,106.0L111.0,106.5L110.0,106.5L109.0,106.5L108.0,106.5L107.0,106.5L106.5,106.0L106.0,105.5L105.5,105.0L105.5,104.0L105.5,103.0L105.5,102.0L105.5,101.0L106.0,100.5L106.5,100.0L107.0,99.5L107.5,99.0L108.0,98.5Z"/><path fill="#B9DDF7" stroke="none" d="M126.0,98.5L127.0,98.5L127.5,99.0L127.5,100.0L127.5,101.0L127.5,102.0L127.5,103.0L127.0,103.5L126.5,103.0L126.5,102.0L126.5,101.0L126.5,100.0L126.0,99.5L125.5,99.0L126.0,98.5Z"/><path fill="#B9DDF7" stroke="none" d="M143.0,98.5L143.5,99.0L143.5,100.0L143.5,101.0L143.5,102.0L143.5,103.0L144.0,103.5L144.5,104.0L144.0,104.5L143.0,104.5L142.5,104.0L142.5,103.0L142.5,102.0L142.5,101.0L142.5,100.0L142.5,99.0L143.0,98.5Z"/><path fill="#B9DDF7" stroke="none" d="M231.0,98.5L231.5,99.0L231.5,100.0L231.5,101.0L231.5,102.0L231.0,102.5L230.5,102.0L230.5,101.0L230.0,100.5L229.5,100.0L230.0,99.5L230.5,99.0L231.0,98.5Z"/><path fill="#B9DDF7" stroke="none" d="M246.0,98.5L247.0,98.5L247.5,99.0L247.0,99.5L246.0,99.5L245.5,99.0L246.0,98.5Z"/><path fill="#B9DDF7" stroke="none" d="M89.0,99.5L89.5,100.0L89.5,101.0L89.0,101.5L88.5,101.0L88.5,100.0L89.0,99.5Z"/><path fill="#B9DDF7" stroke="none" d="M137.0,99.5L137.5,100.0L137.5,101.0L137.5,102.0L137.5,103.0L138.0,103.5L138.5,104.0L138.0,104.5L137.0,104.5L136.5,104.0L136.0,103.5L135.5,103.0L136.0,102.5L136.5,102.0L136.5,101.0L136.5,100.0L137.0,99.5Z"/><path fill="#B9DDF7" stroke="none" d="M148.0,99.5L148.5,100.0L148.5,101.0L148.5,102.0L148.5,103.0L148.5,104.0L148.0,104.5L147.5,104.0L147.5,103.0L147.5,102.0L147.5,101.0L147.5,100.0L148.0,99.5Z"/><path fill="#B9DDF7" stroke="none" d="M343.0,99.5L344.0,99.5L344.5,100.0L344.0,100.5L343.0,100.5L342.5,100.0L343.0,99.5Z"/><path fill="#B9DDF7" stroke="none" d="M119.0,100.5L120.0,100.5L120.5,101.0L120.0,101.5L119.5,102.0L119.0,102.5L118.5,102.0L118.5,101.0L119.0,100.5Z"/><path fill="#B9DDF7" stroke="none" d="M133.0,100.5L133.5,101.0L133.5,102.0L133.0,102.5L132.5,102.0L132.5,101.0L133.0,100.5Z"/><path fill="#B9DDF7" stroke="none" d="M295.0,101.5L295.5,102.0L296.0,102.5L297.0,102.5L298.0,102.5L299.0,102.5L300.0,102.5L301.0,102.5L302.0,102.5L302.5,103.0L303.0,103.5L304.0,103.5L304.5,104.0L304.0,104.5L303.0,104.5L302.0,104.5L301.0,104.5L300.0,104.5L299.5,104.0L299.0,103.5L298.0,103.5L297.0,103.5L296.0,103.5L295.0,103.5L294.5,103.0L294.5,102.0L295.0,101.5Z"/><path fill="#B9DDF7" stroke="none" d="M131.0,102.5L131.5,103.0L131.5,104.0L131.0,104.5L130.5,104.0L130.5,103.0L131.0,102.5Z"/><path fill="#B9DDF7" stroke="none" d="M141.0,102.5L141.5,103.0L141.5,104.0L141.0,104.5L140.0,104.5L139.5,104.0L140.0,103.5L140.5,103.0L141.0,102.5Z"/><path fill="#B9DDF7" stroke="none" d="M91.0,103.5L91.5,104.0L91.5,105.0L91.0,105.5L90.5,105.0L90.5,104.0L91.0,103.5Z"/><path fill="#B9DDF7" stroke="none" d="M150.0,103.5L151.0,103.5L152.0,103.5L152.5,104.0L152.0,104.5L151.0,104.5L150.0,104.5L149.5,104.0L150.0,103.5Z"/><path fill="#B9DDF7" stroke="none" d="M207.0,103.5L208.0,103.5L208.5,104.0L209.0,104.5L209.5,105.0L210.0,105.5L211.0,105.5L212.0,105.5L212.5,105.0L213.0,104.5L213.5,105.0L214.0,105.5L214.5,106.0L214.0,106.5L213.0,106.5L212.5,107.0L212.0,107.5L211.0,107.5L210.5,107.0L210.0,106.5L209.0,106.5L208.5,106.0L208.0,105.5L207.5,105.0L207.0,104.5L206.5,104.0L207.0,103.5Z"/><path fill="#B9DDF7" stroke="none" d="M232.0,103.5L233.0,103.5L233.5,104.0L233.0,104.5L232.0,104.5L231.5,104.0L232.0,103.5Z"/><path fill="#B9DDF7" stroke="none" d="M311.0,104.5L312.0,104.5L312.5,105.0L312.0,105.5L311.0,105.5L310.5,105.0L311.0,104.5Z"/><path fill="#B9DDF7" stroke="none" d="M92.0,105.5L92.5,106.0L92.5,107.0L92.0,107.5L91.5,107.0L91.5,106.0L92.0,105.5Z"/><path fill="#B9DDF7" stroke="none" d="M97.0,106.5L98.0,106.5L99.0,106.5L99.5,107.0L100.0,107.5L101.0,107.5L101.5,108.0L102.0,108.5L102.5,109.0L102.5,110.0L102.5,111.0L102.5,112.0L102.5,113.0L102.0,113.5L101.5,114.0L101.5,115.0L101.0,115.5L100.5,116.0L100.5,117.0L100.0,117.5L99.0,117.5L98.0,117.5L97.0,117.5L96.0,117.5L95.0,117.5L94.5,117.0L94.0,116.5L93.5,116.0L93.0,115.5L92.5,115.0L92.0,114.5L91.5,114.0L91.5,113.0L91.5,112.0L91.5,111.0L91.5,110.0L92.0,109.5L92.5,109.0L92.5,108.0L93.0,107.5L93.5,108.0L94.0,108.5L94.5,108.0L95.0,107.5L95.5,108.0L95.5,109.0L95.0,109.5L94.0,109.5L93.5,110.0L94.0,110.5L94.5,111.0L94.0,111.5L93.5,112.0L93.5,113.0L94.0,113.5L94.5,114.0L95.0,114.5L95.5,115.0L96.0,115.5L96.5,115.0L97.0,114.5L98.0,114.5L99.0,114.5L100.0,114.5L100.5,114.0L100.5,113.0L101.0,112.5L101.5,112.0L101.5,111.0L101.0,110.5L100.5,110.0L100.5,109.0L100.0,108.5L99.0,108.5L98.0,108.5L97.0,108.5L96.5,108.0L96.5,107.0L97.0,106.5Z"/><path fill="#B9DDF7" stroke="none" d="M124.0,107.5L125.0,107.5L126.0,107.5L127.0,107.5L127.5,108.0L127.0,108.5L126.0,108.5L125.0,108.5L124.0,108.5L123.5,108.0L124.0,107.5Z"/><path fill="#B9DDF7" stroke="none" d="M324.0,107.5L325.0,107.5L326.0,107.5L327.0,107.5L328.0,107.5L328.5,108.0L328.5,109.0L328.5,110.0L328.5,111.0L329.0,111.5L330.0,111.5L330.5,112.0L331.0,112.5L331.5,113.0L332.0,113.5L333.0,113.5L333.5,113.0L333.5,112.0L333.5,111.0L333.5,110.0L334.0,109.5L334.5,109.0L334.5,108.0L335.0,107.5L335.5,108.0L336.0,108.5L336.5,109.0L336.5,110.0L337.0,110.5L337.5,111.0L338.0,111.5L338.5,112.0L338.5,113.0L338.5,114.0L339.0,114.5L339.5,115.0L340.0,115.5L340.5,116.0L341.0,116.5L341.5,117.0L342.0,117.5L342.5,118.0L342.5,119.0L343.0,119.5L343.5,120.0L344.0,120.5L344.5,121.0L344.5,122.0L345.0,122.5L345.5,123.0L345.5,124.0L345.5,125.0L345.5,126.0L345.5,127.0L345.5,128.0L345.5,129.0L345.0,129.5L344.0,129.5L343.0,129.5L342.0,129.5L341.0,129.5L340.0,129.5L339.0,129.5L338.0,129.5L337.0,129.5L336.0,129.5L335.0,129.5L334.0,129.5L333.0,129.5L332.0,129.5L331.0,129.5L330.0,129.5L329.0,129.5L328.0,129.5L327.0,129.5L326.0,129.5L325.0,129.5L324.0,129.5L323.0,129.5L322.0,129.5L321.0,129.5L320.0,129.5L319.0,129.5L318.0,129.5L317.0,129.5L316.0,129.5L315.0,129.5L314.0,129.5L313.0,129.5L312.0,129.5L311.0,129.5L310.0,129.5L309.0,129.5L308.0,129.5L307.5,129.0L307.5,128.0L307.0,127.5L306.5,127.0L306.5,126.0L306.0,125.5L305.5,125.0L305.5,124.0L305.5,123.0L305.5,122.0L305.5,121.0L305.5,120.0L306.0,119.5L306.5,119.0L307.0,118.5L307.5,118.0L308.0,117.5L309.0,117.5L310.0,117.5L311.0,117.5L311.5,117.0L312.0,116.5L312.5,116.0L313.0,115.5L313.5,115.0L314.0,114.5L314.5,114.0L314.5,113.0L315.0,112.5L316.0,112.5L316.5,112.0L317.0,111.5L317.5,111.0L318.0,110.5L319.0,110.5L319.5,111.0L320.0,111.5L321.0,111.5L321.5,111.0L321.5,110.0L322.0,109.5L322.5,109.0L323.0,108.5L323.5,108.0L324.0,107.5Z"/><path fill="#B9DDF7" stroke="none" d="M128.0,108.5L129.0,108.5L129.5,109.0L129.0,109.5L128.0,109.5L127.5,109.0L128.0,108.5Z"/><path fill="#B9DDF7" stroke="none" d="M83.0,109.5L83.5,110.0L83.5,111.0L83.5,112.0L83.5,113.0L83.5,114.0L83.5,115.0L83.0,115.5L82.5,115.0L82.5,114.0L82.5,113.0L82.5,112.0L82.5,111.0L82.5,110.0L83.0,109.5Z"/><path fill="#B9DDF7" stroke="none" d="M89.0,109.5L89.5,110.0L89.5,111.0L89.5,112.0L89.5,113.0L89.0,113.5L88.5,113.0L88.5,112.0L88.5,111.0L88.5,110.0L89.0,109.5Z"/><path fill="#B9DDF7" stroke="none" d="M130.0,109.5L131.0,109.5L132.0,109.5L133.0,109.5L134.0,109.5L134.5,110.0L134.0,110.5L133.0,110.5L132.0,110.5L131.0,110.5L130.0,110.5L129.5,110.0L130.0,109.5Z"/><path fill="#B9DDF7" stroke="none" d="M234.0,111.5L235.0,111.5L235.5,112.0L235.5,113.0L235.5,114.0L235.5,115.0L235.0,115.5L234.5,116.0L234.5,117.0L234.5,118.0L234.0,118.5L233.5,119.0L233.5,120.0L233.0,120.5L232.5,121.0L232.5,122.0L232.5,123.0L232.0,123.5L231.5,124.0L231.0,124.5L230.0,124.5L229.5,124.0L229.0,123.5L228.5,123.0L228.5,122.0L228.5,121.0L228.5,120.0L228.5,119.0L229.0,118.5L229.5,118.0L229.5,117.0L229.5,116.0L230.0,115.5L230.5,115.0L231.0,114.5L231.5,114.0L232.0,113.5L232.5,113.0L233.0,112.5L233.5,112.0L234.0,111.5Z"/><path fill="#B9DDF7" stroke="none" d="M137.0,112.5L137.5,113.0L137.5,114.0L137.5,115.0L137.5,116.0L137.0,116.5L136.5,116.0L136.5,115.0L136.5,114.0L136.5,113.0L137.0,112.5Z"/><path fill="#B9DDF7" stroke="none" d="M370.0,113.5L371.0,113.5L371.5,114.0L371.0,114.5L370.0,114.5L369.5,114.0L370.0,113.5Z"/><path fill="#B9DDF7" stroke="none" d="M70.0,114.5L71.0,114.5L71.5,115.0L71.0,115.5L70.0,115.5L69.5,115.0L70.0,114.5Z"/><path fill="#B9DDF7" stroke="none" d="M76.0,114.5L77.0,114.5L77.5,115.0L77.0,115.5L76.0,115.5L75.5,115.0L76.0,114.5Z"/><path fill="#B9DDF7" stroke="none" d="M103.0,114.5L103.5,115.0L103.5,116.0L104.0,116.5L104.5,117.0L105.0,117.5L105.5,118.0L105.0,118.5L104.0,118.5L103.5,118.0L103.0,117.5L102.5,117.0L102.5,116.0L102.5,115.0L103.0,114.5Z"/><path fill="#B9DDF7" stroke="none" d="M357.0,116.5L357.5,117.0L358.0,117.5L358.5,118.0L358.0,118.5L357.0,118.5L356.5,118.0L356.5,117.0L357.0,116.5Z"/><path fill="#B9DDF7" stroke="none" d="M102.0,118.5L103.0,118.5L103.5,119.0L103.0,119.5L102.0,119.5L101.5,119.0L102.0,118.5Z"/><path fill="#B9DDF7" stroke="none" d="M134.0,118.5L134.5,119.0L134.5,120.0L134.5,121.0L134.5,122.0L134.5,123.0L134.5,124.0L134.5,125.0L134.5,126.0L134.5,127.0L134.5,128.0L134.5,129.0L134.0,129.5L133.0,129.5L132.5,129.0L132.5,128.0L132.5,127.0L132.5,126.0L132.0,125.5L131.5,125.0L132.0,124.5L132.5,124.0L133.0,123.5L133.5,123.0L133.5,122.0L133.5,121.0L133.5,120.0L133.5,119.0L134.0,118.5Z"/><path fill="#B9DDF7" stroke="none" d="M104.0,119.5L105.0,119.5L105.5,120.0L106.0,120.5L107.0,120.5L107.5,121.0L107.5,122.0L107.0,122.5L106.5,122.0L106.0,121.5L105.0,121.5L104.5,121.0L104.0,120.5L103.5,120.0L104.0,119.5Z"/><path fill="#B9DDF7" stroke="none" d="M273.0,119.5L274.0,119.5L275.0,119.5L275.5,120.0L275.5,121.0L276.0,121.5L276.5,122.0L277.0,122.5L278.0,122.5L278.5,123.0L279.0,123.5L280.0,123.5L280.5,124.0L281.0,124.5L281.5,125.0L282.0,125.5L283.0,125.5L283.5,126.0L284.0,126.5L285.0,126.5L285.5,127.0L286.0,127.5L286.5,127.0L287.0,126.5L287.5,127.0L288.0,127.5L289.0,127.5L289.5,128.0L289.5,129.0L289.0,129.5L288.0,129.5L287.0,129.5L286.0,129.5L285.0,129.5L284.0,129.5L283.0,129.5L282.0,129.5L281.0,129.5L280.0,129.5L279.0,129.5L278.0,129.5L277.0,129.5L276.0,129.5L275.0,129.5L274.0,129.5L273.0,129.5L272.0,129.5L271.0,129.5L270.0,129.5L269.0,129.5L268.0,129.5L267.0,129.5L266.0,129.5L265.0,129.5L264.0,129.5L263.0,129.5L262.0,129.5L261.0,129.5L260.0,129.5L259.0,129.5L258.0,129.5L257.0,129.5L256.0,129.5L255.0,129.5L254.0,129.5L253.0,129.5L252.0,129.5L251.0,129.5L250.0,129.5L249.0,129.5L248.0,129.5L247.5,129.0L248.0,128.5L248.5,128.0L249.0,127.5L250.0,127.5L251.0,127.5L251.5,127.0L252.0,126.5L253.0,126.5L254.0,126.5L254.5,126.0L255.0,125.5L256.0,125.5L257.0,125.5L257.5,125.0L258.0,124.5L259.0,124.5L260.0,124.5L260.5,124.0L261.0,123.5L262.0,123.5L263.0,123.5L263.5,123.0L264.0,122.5L265.0,122.5L265.5,122.0L266.0,121.5L267.0,121.5L267.5,121.0L268.0,120.5L269.0,120.5L270.0,120.5L271.0,120.5L272.0,120.5L272.5,120.0L273.0,119.5Z"/><path fill="#B9DDF7" stroke="none" d="M175.0,120.5L176.0,120.5L176.5,121.0L177.0,121.5L178.0,121.5L178.5,122.0L179.0,122.5L180.0,122.5L181.0,122.5L182.0,122.5L182.5,123.0L183.0,123.5L184.0,123.5L184.5,124.0L185.0,124.5L186.0,124.5L186.5,125.0L187.0,125.5L188.0,125.5L189.0,125.5L190.0,125.5L190.5,126.0L191.0,126.5L192.0,126.5L193.0,126.5L193.5,127.0L193.5,128.0L193.0,128.5L192.0,128.5L191.5,129.0L191.0,129.5L190.0,129.5L189.0,129.5L188.0,129.5L187.0,129.5L186.0,129.5L185.5,129.0L185.0,128.5L184.5,129.0L184.0,129.5L183.0,129.5L182.0,129.5L181.0,129.5L180.0,129.5L179.0,129.5L178.0,129.5L177.0,129.5L176.0,129.5L175.5,129.0L175.0,128.5L174.0,128.5L173.5,128.0L173.0,127.5L172.0,127.5L171.5,127.0L171.0,126.5L170.5,126.0L170.0,125.5L169.5,125.0L170.0,124.5L170.5,124.0L170.5,123.0L171.0,122.5L172.0,122.5L172.5,122.0L173.0,121.5L174.0,121.5L174.5,121.0L175.0,120.5Z"/><path fill="#B9DDF7" stroke="none" d="M108.0,122.5L108.5,123.0L108.5,124.0L108.0,124.5L107.5,124.0L107.5,123.0L108.0,122.5Z"/><path fill="#B9DDF7" stroke="none" d="M127.0,122.5L128.0,122.5L129.0,122.5L130.0,122.5L130.5,123.0L130.0,123.5L129.5,124.0L129.0,124.5L128.0,124.5L127.0,124.5L126.0,124.5L125.0,124.5L124.5,124.0L125.0,123.5L126.0,123.5L126.5,123.0L127.0,122.5Z"/><path fill="#B9DDF7" stroke="none" d="M109.0,124.5L109.5,125.0L110.0,125.5L111.0,125.5L111.5,126.0L111.5,127.0L112.0,127.5L113.0,127.5L114.0,127.5L115.0,127.5L115.5,128.0L115.0,128.5L114.5,129.0L114.0,129.5L113.0,129.5L112.0,129.5L111.0,129.5L110.0,129.5L109.0,129.5L108.5,129.0L108.5,128.0L108.5,127.0L108.5,126.0L108.5,125.0L109.0,124.5Z"/><path fill="#B9DDF7" stroke="none" d="M161.0,124.5L161.5,125.0L161.5,126.0L162.0,126.5L162.5,127.0L162.0,127.5L161.5,128.0L161.5,129.0L161.0,129.5L160.5,129.0L160.5,128.0L160.5,127.0L160.5,126.0L160.5,125.0L161.0,124.5Z"/><path fill="#B9DDF7" stroke="none" d="M163.0,124.5L164.0,124.5L165.0,124.5L165.5,125.0L165.5,126.0L165.0,126.5L164.5,126.0L164.0,125.5L163.0,125.5L162.5,125.0L163.0,124.5Z"/><path fill="#B9DDF7" stroke="none" d="M141.0,125.5L141.5,126.0L141.5,127.0L141.5,128.0L141.5,129.0L141.0,129.5L140.5,129.0L140.5,128.0L140.5,127.0L140.5,126.0L141.0,125.5Z"/><path fill="#B9DDF7" stroke="none" d="M147.0,125.5L147.5,126.0L147.5,127.0L147.5,128.0L147.5,129.0L147.0,129.5L146.5,129.0L146.5,128.0L146.5,127.0L146.5,126.0L147.0,125.5Z"/><path fill="#B9DDF7" stroke="none" d="M166.0,127.5L166.5,128.0L166.5,129.0L166.0,129.5L165.5,129.0L165.5,128.0L166.0,127.5Z"/><path fill="#B9DDF7" stroke="none" d="M150.0,128.5L151.0,128.5L151.5,129.0L151.0,129.5L150.0,129.5L149.5,129.0L150.0,128.5Z"/><circle cx="64" cy="62" r="6" fill="#1E88E5" stroke="#FFFFFF" stroke-width="1.5"/><circle cx="64" cy="62" r="2" fill="#FFFFFF" stroke="none"/><text x="28" y="67" font-family="Inter,Arial,sans-serif" font-size="6.4" font-weight="700" fill="#0A1E3D" stroke="none">MEXICO</text><circle cx="94" cy="73" r="6" fill="#1E88E5" stroke="#FFFFFF" stroke-width="1.5"/><circle cx="94" cy="73" r="2" fill="#FFFFFF" stroke="none"/><text x="105" y="74" font-family="Inter,Arial,sans-serif" font-size="6.4" font-weight="700" fill="#0A1E3D" stroke="none">HONDURAS</text><circle cx="103" cy="87" r="6" fill="#1E88E5" stroke="#FFFFFF" stroke-width="1.5"/><circle cx="103" cy="87" r="2" fill="#FFFFFF" stroke="none"/><text x="116" y="91" font-family="Inter,Arial,sans-serif" font-size="6.4" font-weight="700" fill="#0A1E3D" stroke="none">PANAMA</text><circle cx="111" cy="103" r="6" fill="#1E88E5" stroke="#FFFFFF" stroke-width="1.5"/><circle cx="111" cy="103" r="2" fill="#FFFFFF" stroke="none"/><text x="124" y="105" font-family="Inter,Arial,sans-serif" font-size="6.4" font-weight="700" fill="#0A1E3D" stroke="none">COLOMBIA</text><circle cx="98" cy="112" r="6" fill="#1E88E5" stroke="#FFFFFF" stroke-width="1.5"/><circle cx="98" cy="112" r="2" fill="#FFFFFF" stroke="none"/><text x="70" y="118" font-family="Inter,Arial,sans-serif" font-size="6.4" font-weight="700" fill="#0A1E3D" stroke="none">PERU</text><circle cx="126" cy="129" r="6" fill="#1E88E5" stroke="#FFFFFF" stroke-width="1.5"/><circle cx="126" cy="129" r="2" fill="#FFFFFF" stroke="none"/><text x="137" y="134" font-family="Inter,Arial,sans-serif" font-size="6.4" font-weight="700" fill="#0A1E3D" stroke="none">BOLIVIA</text><circle cx="113" cy="142" r="6" fill="#1E88E5" stroke="#FFFFFF" stroke-width="1.5"/><circle cx="113" cy="142" r="2" fill="#FFFFFF" stroke="none"/><text x="79" y="146" font-family="Inter,Arial,sans-serif" font-size="6.4" font-weight="700" fill="#0A1E3D" stroke="none">CHILE</text><circle cx="190" cy="51" r="6" fill="#1E88E5" stroke="#FFFFFF" stroke-width="1.5"/><circle cx="190" cy="51" r="2" fill="#FFFFFF" stroke="none"/><text x="201" y="52" font-family="Inter,Arial,sans-serif" font-size="6.4" font-weight="700" fill="#0A1E3D" stroke="none">SPAIN</text><circle cx="211" cy="103" r="6" fill="#1E88E5" stroke="#FFFFFF" stroke-width="1.5"/><circle cx="211" cy="103" r="2" fill="#FFFFFF" stroke="none"/><text x="222" y="105" font-family="Inter,Arial,sans-serif" font-size="6.4" font-weight="700" fill="#0A1E3D" stroke="none">AFRICA</text><circle cx="320" cy="82" r="6" fill="#1E88E5" stroke="#FFFFFF" stroke-width="1.5"/><circle cx="320" cy="82" r="2" fill="#FFFFFF" stroke="none"/><text x="332" y="84" font-family="Inter,Arial,sans-serif" font-size="6.4" font-weight="700" fill="#0A1E3D" stroke="none">PHILIPPINES</text></svg>